<?xml version="1.0" encoding="utf-8"?>
<!-- Generator: Adobe Illustrator 16.0.0, SVG Export Plug-In . SVG Version: 6.00 Build 0)  -->
<!DOCTYPE svg PUBLIC "-//W3C//DTD SVG 1.1//EN" "http://www.w3.org/Graphics/SVG/1.1/DTD/svg11.dtd">
<svg version="1.1" id="svg" xmlns="http://www.w3.org/2000/svg" xmlns:xlink="http://www.w3.org/1999/xlink" x="0px" y="0px" viewBox="7 97 598 598" enable-background="new 7 97 598 598" xml:space="preserve">
<title>Africa</title>
<path id="algeria" d="M231.775,106.135l-11.086-3.785l-45.967,8.653l-10.005,7.572l6.22,31.636l-18.387,0.811l-11.086,17.576
	l-26.229,6.22v12.979l86.257,65.977l14.602,1.353L265.034,217l-4.867-6.219l-9.194-1.352l-5.408-9.193v-38.666l-3.785-3.786
	l0.541-9.735l-9.734-9.733l-1.352-10.545l4.326-2.974l-1.893-11.087L231.775,106.135z"/>
<path id="morocco" d="M162.555,119.114h-31.096l-6.22,13.52l-14.06,6.76l-11.627,31.366l-22.713,13.52l-31.907,52.458l31.095-0.541
	l1.353-15.412h7.841v-21.091h27.851l0.541-27.04l26.229-6.22l11.085-17.845l17.036-0.541L162.555,119.114z"/>
<path id="mauretania" d="M45.203,239.17l5.949,7.841l-1.352,33.259l8.653-6.22l6.22-1.352l8.653,2.974l9.733,13.52l9.193-6.219
	l44.616-0.542l-11.086-74.629h11.897l-22.172-17.034v11.086H87.655v21.091h-8.112l-1.082,15.412L45.203,239.17z"/>
<path id="senegal" d="M59.263,275.944l-10.545,7.841l-2.434,4.327l-0.811,4.327l4.056,2.703l12.979-0.27l8.382-2.164l1.082,4.056
	l-0.811,5.408l8.112,4.057l1.623,1.893l10.545,0.271l0.271-4.597l-9.735-11.627L71.16,277.566l-6.76-2.704L59.263,275.944z"/>
<path id="gambia" d="M50.61,297.575l-0.27,2.975l18.657-0.27l1.082-2.705l-0.271-2.703l-5.408,2.163L50.61,297.575z"/>
<path id="casamance" d="M50.34,302.714l3.245,8.112l1.892-5.138l22.713,2.434l-9.734-5.138L50.34,302.714z"/>
<path id="bissau" d="M55.207,314.34l3.786,7.571l10.545-9.194v-2.704L57.1,308.122L55.207,314.34L55.207,314.34z"/>
<path id="guinee" d="M60.075,323.534l8.112,12.709l10.816-9.194l11.087-0.541l9.192,12.168l7.842,5.137l2.974-5.678l2.703-1.352
	l-0.27-12.438l-5.137-14.873l-15.953,1.622l-19.739-1.622v5.138L60.075,323.534z"/>
<path id="sierra_leone" d="M69.538,337.594l15.143,14.872l10.815-13.25l-6.759-10.815l-9.465,1.082L69.538,337.594z"/>
<path id="liberia" d="M86.573,354.088l29.743,19.739l-0.812-15.142l-8.922-10.545l-8.653-7.841L86.573,354.088z"/>
<path id="ivoire" d="M118.75,374.369l11.626-8.112l14.331-2.434l14.601,3.244l-7.571-11.356l-2.164-7.03l2.164-20.55l-13.25,0.541
	l-5.949-5.679l-12.438,0.271l-5.949,1.082l0.541,13.79l-3.245,1.352l-3.785,7.03l9.734,11.357L118.75,374.369z"/>
<path id="mali" d="M84.68,290.816l8.382-5.678l46.238-0.271l-10.815-74.359l12.167-0.271l59.218,45.157l7.841,1.082l-2.974,25.147
	l-37.315,3.515L138.76,306.5l-5.137,14.601l-20.009,0.812l-5.138-14.602l-15.142,1.082l0.542-4.867L84.68,290.816z"/>
<path id="burkina" d="M168.774,286.759l9.734-0.811l16.224,22.714l-14.871,11.356l-10.816-2.704l-14.601,0.271l-2.434,8.653
	l-12.167,0.542l-3.245-4.597l4.327-13.791L168.774,286.759L168.774,286.759z"/>
<path id="niger" d="M196.624,307.58l6.76-0.27l6.219-9.464l10.546-1.893l11.086,6.76l23.794,0.811l18.388-7.571l6.759-5.949
	l0.542-7.841l12.708-12.979l3.515-28.392l-8.382-17.576l-21.631-5.137l-49.753,38.937l-7.03-0.812l-2.974,27.04l-25.417,2.434
	L196.624,307.58z"/>
<path id="ghana" d="M151.739,348.14l2.974,7.03l7.842,12.438l4.326-0.27l11.897-6.761l-0.811-38.666l-9.194-2.704l-12.979,0.271
	L151.739,348.14z"/>
<path id="togo" d="M181.212,359.497l7.301-4.326l-0.271-28.121l-4.597-7.571l-2.974,2.434L181.212,359.497z"/>
<path id="benin" d="M190.676,354.9h5.678l0.271-16.224l7.301-10.545l-0.271-18.387l-6.489-0.271l-11.357,8.923l4.597,8.923
	L190.676,354.9L190.676,354.9z"/>
<path id="nigeria" d="M198.518,354.629l10.545,0.541l12.708,14.33l6.22,1.623l4.867-2.434l7.3-1.082l2.433-10.275l10.005-6.76
	l10.816-0.541l20.01-36.773l-0.271-8.383l-9.194-7.03l-18.387,8.112l-24.606-0.271l-11.897-7.571l-8.382,1.892l-4.327,7.571
	l-0.271,21.632l-7.03,10.005L198.518,354.629L198.518,354.629z"/>
<path id="tunisia" d="M234.48,105.595l14.872-5.949l4.867,3.245l0.271,3.785l-2.434,2.975l0.271,5.408l2.434,1.352v9.464
	l-2.704,4.326l0.271,2.974l10.005,3.515l-8.112,12.438l-3.245-0.271l-0.541,10.004l-3.515,0.542l-2.974-2.704l0.811-10.274
	l-9.734-9.465l-1.352-8.382l4.868-3.786L234.48,105.595z"/>
<path id="libya" d="M248.27,161.566l4.326-0.811l1.352-9.735h2.163l8.653-14.061l21.362,6.22l5.678,8.923l20.821,9.464l10.816-4.597
	l-1.083-4.597l-4.866-4.596l0.541-3.246l7.842-6.489h15.412l5.948,7.841l12.168,1.894l1.622,99.775l-9.193-0.271l-55.161-28.662
	l-5.949,3.515l-22.714-5.679l-6.22-8.112l-8.923-1.352l-4.597-8.112L248.27,161.566L248.27,161.566z"/>
<path id="egypt" d="M361.566,148.317l7.302,0.27l14.06,3.786l6.76,0.271l8.383-7.03h3.786l7.03,3.786h10.544l5.679,16.224
	l1.622,5.137l1.353,7.841l-2.705,1.892l-4.596-2.433l-5.408-17.305l-4.868-0.271l-0.271,5.949l3.247,10.005l25.416,31.366
	l0.541,13.52l-7.301,8.383l-69.222-0.812L361.566,148.317z"/>
<path id="chad" d="M282.881,291.357l0.271-8.112l12.709-12.438l3.516-30.555l-8.653-16.223l5.949-2.974l57.865,30.014l-0.27,29.473
	l-10.275,8.653v15.143l6.76,12.979h-11.896l-19.469,19.198l-0.541,5.949l-14.331-0.271l-0.27,2.704l-8.112-1.082l-5.678-10.545
	l-4.326-2.163l0.541-3.245l5.408-4.056v-18.927l-7.301-1.082l-8.923-6.489L282.881,291.357z"/>
<path id="south_sudan" d="M435.114,330.023l-7.842-13.249l-0.81-9.735l-1.895,0.271l-0.541,2.975l-10.544,15.142l-8.382-4.056
	l-8.384,7.03l-17.305-1.082l-7.57-5.948l-10.816,5.678l-0.541,3.786l-3.245,1.892l33.259,34.339l18.116,1.082l2.704,4.056
	l25.959,0.541l0.271-5.949l2.161-4.057l8.654-1.082l-10.815-15.683h-7.843l-2.162-11.086l6.488-2.703L435.114,330.023z"/>
<path id="sudan" d="M442.956,222.676l-10.005,10.005l-69.763-0.541l0.811,17.845l-6.761-0.27l-0.541,31.906l-10.005,8.653
	l-0.541,13.249l7.302,14.332l7.841,4.597v1.082l10.816-5.678l8.383,6.489l15.141,0.812l8.924-7.301l7.841,3.785l8.924-12.708
	l0.811-4.327l6.76-1.352l1.083,12.168l6.76,11.357l16.224-34.881v-21.091l11.898-13.79L442.956,222.676z"/>
<path id="cameroon" d="M242.321,367.879l8.653,8.112l-0.541,12.438l47.859-1.082l3.786-4.326l-13.791-14.872l-2.164-5.408
	l8.653-16.224l-5.95-10.815l-4.867-2.704v-5.407l5.678-3.787l0.271-17.035l-4.597-0.542v8.923l-20.01,37.585l-12.167,0.541
	l-8.383,5.679L242.321,367.879z"/>
<path id="eritrea" d="M455.665,287.842l-0.812-15.954l10.816-12.438l2.974,2.164l5.408,17.576l25.417,18.928l-4.597,5.678
	l-18.387-15.953L455.665,287.842L455.665,287.842z"/>
<path id="djibouti" d="M495.683,306.229l-1.622,9.194l10.816-0.27l0.271-13.25l-4.057-2.434L495.683,306.229z"/>
<path id="ethiopia" d="M436.196,334.08l19.74-43.804h19.467l17.306,15.143l-1.352,12.438h13.521l1.352,7.571l21.631,12.979
	l13.521,0.811l-25.417,27.31l-35.151,10.816h-8.654l-15.412-13.249l-6.218-2.704l-11.898-17.576h-7.841l-0.811-8.112L436.196,334.08
	L436.196,334.08z"/>
<path id="somaliland" d="M507.04,315.693l11.086,7.571l3.247-0.271l27.309-9.464l3.245,10.005l-2.164,8.383l-5.947,4.597
	l-14.872-1.083l-21.093-12.979L507.04,315.693L507.04,315.693z"/>
<path id="somalia" d="M551.114,312.988l11.897-4.597l4.057,2.434l-0.541,10.545l-10.816,31.096l-58.947,63.273l-6.76-4.598
	l-0.541-26.769l8.924-10.275l18.928-5.679l27.58-29.203l7.302-6.489l2.163-9.464L551.114,312.988z"/>
<path id="centrafrique" d="M290.722,367.067l12.709,13.521l4.868-6.489l7.84,0.271l1.623-6.22l7.841-4.867l16.225,11.087
	l9.464-9.194l36.232,1.622l-33.799-34.34l4.598-2.703l0.541-6.22l-7.571-3.515h-11.087l-18.115,17.847l-0.542,7.3l-14.331-0.541
	l-0.541,3.245l-9.463-1.083l-8.383,15.954L290.722,367.067L290.722,367.067z"/>
<path id="sao_tome" d="M223.124,402.489l2.975-1.622l2.434,1.894l-2.434,3.515l-2.704-1.082L223.124,402.489z"/>
<path id="principe" d="M229.342,392.755l4.597-0.811l1.622,2.974l-2.434,2.435l-2.434-0.271L229.342,392.755L229.342,392.755z"/>
<path id="bioko" d="M239.618,376.262l-1.353,5.408l3.786,2.164l3.515-2.704l-1.352-5.408L239.618,376.262L239.618,376.262z"/>
<path id="gabon" d="M265.575,390.321l-0.27,6.761l-15.142-0.271l-9.464,18.116l21.902,24.065l5.408-4.597l-0.271-4.597l-3.786-1.623
	v-3.244l8.382-5.408l7.572,5.677l8.112,0.271l-0.271-28.393l-12.979-0.541l-0.271-5.949L265.575,390.321L265.575,390.321z"/>
<path id="equatorial_guinea" d="M250.975,390.592l-0.271,3.787l12.168,0.541l-0.271-4.326L250.975,390.592L250.975,390.592z"/>
<path id="congo" d="M278.014,390.051l-0.271,4.057l12.979,0.271l0.541,33.529l-11.897-0.271l-6.76-5.408l-5.407,2.974l-0.271,1.352
	l2.704,1.353l0.811,6.761l-7.3,6.219l1.622,3.245l8.111-6.219h3.786l1.352,3.785l5.138,2.164l16.494-14.061l-0.269-10.275
	l3.515-8.382l10.544-7.842l2.704-26.499h-7.571l-8.652,11.897L278.014,390.051L278.014,390.051z"/>
<path id="cabinda" d="M265.846,446.023l4.597,6.22l6.219-5.679l-1.893-5.949h-1.622L265.846,446.023L265.846,446.023z"/>
<path id="drc" d="M273.688,452.784l27.85-0.541l5.678,8.111l-0.27,5.95l2.162,1.892h13.79l4.057-7.841h5.678l2.435,2.436
	l7.841-0.271l2.164,27.312l13.52,0.541v2.162l35.962,16.224l1.622,3.245h7.571l-0.811-11.357l-13.52-6.489l0.81-8.652l5.949-13.79
	l13.521-0.541l-11.627-38.127l0.271-16.223l18.115-28.393l0.271-4.056l-2.703-1.352v-7.842l-3.246-0.27l-3.245-4.327l-54.891-2.434
	l-10.005,9.735l-16.493-10.817l-5.679,3.516l-4.326,35.422l-10.545,8.111l-3.246,7.03l0.542,10.544l-18.926,15.413l-5.137-2.164
	l0.811,2.975L273.688,452.784L273.688,452.784z"/>
<path id="rwanda" d="M404.56,410.061l7.571,7.03l-0.271,7.57l-11.897,0.271v-8.384L404.56,410.061z"/>
<path id="burundi" d="M400.233,427.096l11.627-0.271l-2.974,10.006l-2.975,2.435h-3.515l-2.435-6.761L400.233,427.096z"/>
<path id="uganda" d="M405.911,407.897l8.112,7.57l5.137-3.244l13.791-2.163l2.434,0.27l0.811-5.407l7.841-16.495l-6.487-13.791
	h-21.362v5.678l2.974,2.703l-0.541,5.679L405.911,407.897L405.911,407.897z"/>
<path id="kenya" d="M439.711,373.827l7.302,14.061l-8.653,18.117l-1.082,5.407l42.992,26.77l13.25-21.092l-6.76-5.406v-27.582
	l8.383-9.193l-13.521,4.597h-10.275l-15.952-13.52l-5.138-2.164l-9.464,0.812l-1.623,2.703L439.711,373.827L439.711,373.827z"/>
<path id="tanzania" d="M439.17,495.236l47.32-5.679l-10.545-20.551l-0.541-19.737l3.515-9.465l-44.886-28.121l-14.061,2.433
	l-4.867,3.516l-0.54,8.112l-3.245,11.356l-3.246,4.056l-4.866,0.541l8.923,31.366l14.873,7.031l10.275,0.27L439.17,495.236
	L439.17,495.236z"/>
<path id="zambia" d="M341.557,531.198l8.653,11.897l13.25,0.812l4.598,2.703l13.79,0.271l11.896-16.764l33.529-14.873l2.975-13.248
	l-3.785-18.93l-17.576-10.005l-11.628,0.813l-5.947,12.979l0.268,5.949l13.791,6.76l0.811,14.601l-11.896,0.541l-2.973-4.867
	l-32.72-14.06l-1.082,10.815l-15.413,0.541L341.557,531.198L341.557,531.198z"/>
<path id="angola" d="M271.524,455.487l9.194,34.341l-0.271,10.815l-13.52,14.601l-2.164,23.525l51.916,0.541l16.765,6.22
	l14.061-1.894l-8.112-10.275V504.43l15.953-0.812v-11.356l-12.979-0.542l-2.704-26.769h-5.408l-2.974-2.703l-3.246,0.27
	l-4.326,8.382h-15.952l-3.786-3.786l1.081-5.408l-4.597-6.488L271.524,455.487L271.524,455.487z"/>
<path id="malawi" d="M429.977,516.868l8.382,8.923l-0.271,11.357l1.622,4.865l11.087-12.167l-1.353-15.412l-5.948-4.598
	l-5.409-27.038l-9.192-0.271l4.057,19.469L429.977,516.868L429.977,516.868z"/>
<path id="mozambique" d="M413.753,608.532l7.302,5.949l17.034-10.546l2.705-15.412v-25.688l27.58-22.442l4.597,0.269l16.764-15.953
	l-2.703-32.988l-44.075,5.679l1.353,10.005l7.572,5.949l1.892,17.846L438.9,545.802l-3.515-8.113l0.541-10.815l-8.653-9.193
	l-21.092,9.734l19.469,10.004l0.541,28.933l-12.979,19.198L413.753,608.532L413.753,608.532z"/>
<path id="zimbabwe" d="M369.137,551.748l24.337,27.311l18.657,4.868l12.437-19.468l-1.08-25.959l-20.281-10.546l-7.57,3.516
	l-11.358,17.306l-15.683-0.271L369.137,551.748L369.137,551.748z"/>
<path id="namibia" d="M292.886,632.057l9.193,0.542l5.408,5.408l12.708,0.269l2.975-35.962v-23.525l8.113-1.621l2.973-24.606
	l20.551-0.541l7.301-5.948l-12.168-0.541l-16.765,2.162l-17.846-6.488h-50.564l1.351,14.331l16.765,24.876l-2.974,12.709
	l0.271,6.761L292.886,632.057z"/>
<path id="botswana" d="M325.334,602.854l5.678,1.893L330.2,621.24l5.948,0.812l13.791-12.438l16.494,1.893l4.326-11.085
	l20.819-18.929l-25.146-28.933l-0.271-4.867l-2.703-0.811l-7.571,7.03l-19.74,0.541l-2.703,24.605l-7.841,1.894L325.334,602.854z"/>
<path id="swaziland" d="M412.942,610.425l-6.761,1.081l-2.975,8.112l5.139,4.867h6.219l5.407-7.571L412.942,610.425L412.942,610.425
	z"/>
<path id="lesotho" d="M376.439,641.25l8.111-6.49l3.786,0.271l4.598,5.949l-0.542,5.95l-7.841,2.974v2.163l-8.653-0.541
	l-2.164-6.489L376.439,641.25L376.439,641.25z"/>
<path id="south_africa" d="M394.826,582.304l-21.362,19.738l-5.137,12.168l-17.035-2.162l-14.061,12.438l-9.465-0.811l0.812-17.305
	l-3.244-1.082l-2.436,35.422l-16.493-0.271l-5.137-5.949h-7.302l6.76,19.198l11.897,11.357l-8.382,10.006l5.407,12.438l12.709,4.868
	l10.274-8.654l29.203,0.271l2.163-2.704l12.979-2.163l43.805-43.534l-0.271-13.791l-4.597,5.95h-7.029l-8.653-7.03l4.326-10.815
	l7.57-1.623l-0.811-22.172L394.826,582.304L394.826,582.304z M384.55,632.327l4.056-0.271l6.761,7.302l-0.271,8.381l-7.842,4.057
	l-0.54,2.704h-11.897l-3.787-8.923l3.516-6.49L384.55,632.327z"/>
<path id="madagascar" d="M551.926,499.292l-5.679,13.79l-10.005,17.305l-17.305,1.352l-7.301,8.654l1.352,26.498l-10.815,12.438
	l1.352,21.092l8.923,10.274l10.816-1.352l10.816-7.841l-2.435-12.439l24.606-42.721l-4.866-5.408l4.866-10.276l5.408,1.624
	l1.621-4.058l-4.866-21.092l-2.974-8.652L551.926,499.292z"/>
</svg>
