<svg xmlns="http://www.w3.org/2000/svg" viewBox="0 0 193.1 219.2"><defs><style>.cls-1{fill:#9e8363;}</style></defs><title>資產 4</title><g id="圖層_2" data-name="圖層 2"><g id="svg2"><path id="algeria" class="cls-1" d="M69.1,2.4,65,1,48,4.2,44.3,7l2.3,11.7-6.8.3-4.1,6.5L26,27.8v4.8L57.9,57l5.4.5L81.4,43.4l-1.8-2.3-3.4-.5-2-3.4V22.9l-1.4-1.4.2-3.6-3.6-3.6-.5-3.9,1.6-1.1-.7-4.1-.7-2.8Z"/><path id="morocco" class="cls-1" d="M43.5,7.2H32l-2.3,5-5.2,2.5L20.2,26.3l-8.4,5L0,50.7l11.5-.2.5-5.7h2.9V37H25.2l.2-10,9.7-2.3,4.1-6.6,6.3-.2-2-10.7Z"/><path id="mauretania" class="cls-1" d="M.1,51.6l2.2,2.9L1.8,66.8,5,64.5,7.3,64l3.2,1.1,3.6,5,3.4-2.3L34,67.6,29.9,40h4.4l-8.2-6.3v4.1H15.8v7.8h-3l-.4,5.7L.1,51.6Z"/><path id="senegal" class="cls-1" d="M5.3,65.2,1.4,68.1.5,69.7.2,71.3l1.5,1,4.8-.1,3.1-.8.4,1.5-.3,2,3,1.5.6.7,3.9.1.1-1.7-3.6-4.3-4-5.4-2.5-1-1.9.4Z"/><path id="gambia" class="cls-1" d="M2.1,73.2,2,74.3l6.9-.1.4-1-.1-1-2,.8-5.1.2Z"/><path id="casamance" class="cls-1" d="M2,75.1l1.2,3,.7-1.9,8.4.9L8.7,75.2,2,75.1Z"/><path id="bissau" class="cls-1" d="M3.8,79.4l1.4,2.8,3.9-3.4v-1l-4.6-.7-.7,2.3Z"/><path id="guinee" class="cls-1" d="M5.6,82.8l3,4.7,4-3.4,4.1-.2,3.4,4.5L23,90.3l1.1-2.1,1-.5L25,83.1l-1.9-5.5-5.9.6-7.3-.6v1.9L5.6,82.8Z"/><path id="sierra_leone" data-name="sierra leone" class="cls-1" d="M9.1,88l5.6,5.5,4-4.9-2.5-4-3.5.4L9.1,88Z"/><path id="liberia" class="cls-1" d="M15.4,94.1l11,7.3-.3-5.6-3.3-3.9L19.6,89l-4.2,5.1Z"/><path id="ivoire" class="cls-1" d="M27.3,101.6l4.3-3,5.3-.9,5.4,1.2-2.8-4.2-.8-2.6.8-7.6-4.9.2-2.2-2.1-4.6.1-2.2.4.2,5.1-1.2.5-1.4,2.6,3.6,4.2.5,6.1Z"/><path id="mali" class="cls-1" d="M14.7,70.7l3.1-2.1,17.1-.1L30.9,41l4.5-.1L57.3,57.6l2.9.4-1.1,9.3L45.3,68.6,34.7,76.5l-1.9,5.4-7.4.3-1.9-5.4-5.6.4.2-1.8-3.4-4.7Z"/><path id="burkina" class="cls-1" d="M45.8,69.2l3.6-.3,6,8.4-5.5,4.2-4-1-5.4.1-.9,3.2-4.5.2-1.2-1.7,1.6-5.1,10.3-8Z"/><path id="niger" class="cls-1" d="M56.1,76.9l2.5-.1,2.3-3.5,3.9-.7,4.1,2.5,8.8.3,6.8-2.8L87,70.4l.2-2.9,4.7-4.8,1.3-10.5-3.1-6.5-8-1.9L63.7,58.2l-2.6-.3L60,67.9l-9.4.9,5.5,8.1Z"/><path id="ghana" class="cls-1" d="M39.5,91.9l1.1,2.6,2.9,4.6,1.6-.1,4.4-2.5-.3-14.3-3.4-1-4.8.1L39.5,91.9Z"/><path id="togo" class="cls-1" d="M50.4,96.1l2.7-1.6L53,84.1l-1.7-2.8-1.1.9.2,13.9Z"/><path id="benin" class="cls-1" d="M53.9,94.4H56l.1-6,2.7-3.9-.1-6.8-2.4-.1-4.2,3.3,1.7,3.3.1,10.2Z"/><path id="nigeria" class="cls-1" d="M56.8,94.3l3.9.2,4.7,5.3,2.3.6,1.8-.9,2.7-.4.9-3.8,3.7-2.5,4-.2L88.2,79l-.1-3.1-3.4-2.6-6.8,3-9.1-.1-4.4-2.8-3.1.7-1.6,2.8-.1,8L57,88.6l-.2,5.7Z"/><path id="tunisia" class="cls-1" d="M70.1,2.2,75.6,0l1.8,1.2.1,1.4-.9,1.1.1,2,.9.5V9.7l-1,1.6.1,1.1,3.7,1.3-3,4.6-1.2-.1L76,21.9l-1.3.2-1.1-1,.3-3.8-3.6-3.5-.5-3.1,1.8-1.4L70.1,2.2Z"/><path id="libya" class="cls-1" d="M75.2,22.9l1.6-.3.5-3.6h.8l3.2-5.2,7.9,2.3,2.1,3.3L99,22.9l4-1.7-.4-1.7-1.8-1.7.2-1.2,2.9-2.4h5.7l2.2,2.9,4.5.7.6,36.9-3.4-.1L93.1,44l-2.2,1.3-8.4-2.1-2.3-3-3.3-.5-1.7-3V22.9Z"/><path id="egypt" class="cls-1" d="M117.1,18l2.7.1,5.2,1.4,2.5.1,3.1-2.6H132l2.6,1.4h3.9l2.1,6,.6,1.9.5,2.9-1,.7L139,29l-2-6.4-1.8-.1-.1,2.2,1.2,3.7L145.7,40l.2,5-2.7,3.1-25.6-.3L117.1,18Z"/><path id="chad" class="cls-1" d="M88,70.9l.1-3,4.7-4.6L94.1,52l-3.2-6,2.2-1.1L114.5,56l-.1,10.9-3.8,3.2v5.6l2.5,4.8h-4.4l-7.2,7.1-.2,2.2L96,89.7l-.1,1-3-.4-2.1-3.9-1.6-.8.2-1.2,2-1.5v-7l-2.7-.4-3.3-2.4L88,70.9Z"/><path id="south_sudan" data-name="south sudan" class="cls-1" d="M144.3,85.2l-2.9-4.9-.3-3.6-.7.1-.2,1.1-3.9,5.6L133.2,82l-3.1,2.6-6.4-.4L120.9,82l-4,2.1-.2,1.4-1.2.7,12.3,12.7,6.7.4,1,1.5,9.6.2.1-2.2.8-1.5,3.2-.4-4-5.8h-2.9l-.8-4.1,2.4-1Z"/><path id="sudan" class="cls-1" d="M147.2,45.5l-3.7,3.7L117.7,49l.3,6.6-2.5-.1-.2,11.8-3.7,3.2-.2,4.9,2.7,5.3,2.9,1.7v.4l4-2.1,3.1,2.4,5.6.3,3.3-2.7,2.9,1.4,3.3-4.7.3-1.6,2.5-.5.4,4.5,2.5,4.2,6-12.9V63.3l4.4-5.1Z"/><path id="cameroon" class="cls-1" d="M73,99.2l3.2,3-.2,4.6,17.7-.4,1.4-1.6L90,99.3l-.8-2,3.2-6-2.2-4-1.8-1v-2l2.1-1.4.1-6.3-1.7-.2v3.3L81.5,93.6l-4.5.2-3.1,2.1L73,99.2Z"/><path id="eritrea" class="cls-1" d="M151.9,69.6l-.3-5.9,4-4.6,1.1.8,2,6.5,9.4,7-1.7,2.1-6.8-5.9Z"/><path id="djibouti" class="cls-1" d="M166.7,76.4l-.6,3.4,4-.1.1-4.9-1.5-.9-2,2.5Z"/><path id="ethiopia" class="cls-1" d="M144.7,86.7,152,70.5h7.2l6.4,5.6-.5,4.6h5l.5,2.8,8,4.8,5,.3-9.4,10.1-13,4H158l-5.7-4.9-2.3-1-4.4-6.5h-2.9l-.3-3,2.3-.6Z"/><path id="somaliland" class="cls-1" d="M170.9,79.9l4.1,2.8,1.2-.1,10.1-3.5,1.2,3.7-.8,3.1-2.2,1.7-5.5-.4-7.8-4.8-.3-2.5Z"/><path id="somalia" class="cls-1" d="M187.2,78.9l4.4-1.7,1.5.9-.2,3.9-4,11.5-21.8,23.4-2.5-1.7-.2-9.9,3.3-3.8,7-2.1,10.2-10.8,2.7-2.4.8-3.5-1.2-3.8Z"/><path id="centrafrique" class="cls-1" d="M90.9,98.9l4.7,5,1.8-2.4,2.9.1.6-2.3,2.9-1.8,6,4.1,3.5-3.4,13.4.6L114.2,86.1l1.7-1,.2-2.3-2.8-1.3h-4.1l-6.7,6.6-.2,2.7L97,90.6l-.2,1.2-3.5-.4-3.1,5.9.7,1.6Z"/><path id="sao_tome" data-name="sao tome" class="cls-1" d="M65.9,112l1.1-.6.9.7-.9,1.3-1-.4-.1-1Z"/><path id="principe" class="cls-1" d="M68.2,108.4l1.7-.3.6,1.1-.9.9-.9-.1-.5-1.6Z"/><path id="bioko" class="cls-1" d="M72,102.3l-.5,2,1.4.8,1.3-1-.5-2-1.7.2Z"/><path id="gabon" class="cls-1" d="M81.6,107.5l-.1,2.5-5.6-.1-3.5,6.7,8.1,8.9,2-1.7-.1-1.7-1.4-.6v-1.2l3.1-2,2.8,2.1,3,.1L89.8,110l-4.8-.2-.1-2.2-3.3-.1Z"/><path id="equatorial_guinea" data-name="equatorial guinea" class="cls-1" d="M76.2,107.6l-.1,1.4,4.5.2-.1-1.6Z"/><path id="congo" class="cls-1" d="M86.2,107.4l-.1,1.5,4.8.1.2,12.4-4.4-.1-2.5-2-2,1.1-.1.5,1,.5.3,2.5-2.7,2.3.6,1.2,3-2.3h1.4l.5,1.4,1.9.8,6.1-5.2-.1-3.8,1.3-3.1,3.9-2.9,1-9.8H97.5l-3.2,4.4-8.1.5Z"/><path id="cabinda" class="cls-1" d="M81.7,128.1l1.7,2.3,2.3-2.1-.7-2.2h-.6l-2.7,2Z"/><path id="drc" class="cls-1" d="M84.6,130.6l10.3-.2,2.1,3-.1,2.2.8.7h5.1l1.5-2.9h2.1l.9.9,2.9-.1.8,10.1,5,.2v.8l13.3,6,.6,1.2h2.8l-.3-4.2-5-2.4.3-3.2,2.2-5.1,5-.2-4.3-14.1.1-6,6.7-10.5.1-1.5-1-.5v-2.9l-1.2-.1-1.2-1.6-20.3-.9-3.7,3.6-6.1-4-2.1,1.3-1.6,13.1-3.9,3-1.2,2.6.2,3.9-7,5.7-1.9-.8.3,1.1-2.2,1.8Z"/><path id="rwanda" class="cls-1" d="M133,114.8l2.8,2.6-.1,2.8-4.4.1v-3.1l1.7-2.4Z"/><path id="burundi" class="cls-1" d="M131.4,121.1l4.3-.1-1.1,3.7-1.1.9h-1.3l-.9-2.5.1-2Z"/><path id="uganda" class="cls-1" d="M133.5,114l3,2.8,1.9-1.2,5.1-.8.9.1.3-2,2.9-6.1-2.4-5.1h-7.9v2.1l1.1,1-.2,2.1-4.7,7.1Z"/><path id="kenya" class="cls-1" d="M146,101.4l2.7,5.2-3.2,6.7-.4,2,15.9,9.9,4.9-7.8-2.5-2V105.2l3.1-3.4-5,1.7h-3.8l-5.9-5-1.9-.8-3.5.3-.6,1,.2,2.4Z"/><path id="tanzania" class="cls-1" d="M145.8,146.3l17.5-2.1-3.9-7.6-.2-7.3,1.3-3.5-16.6-10.4-5.2.9-1.8,1.3-.2,3-1.2,4.2-1.2,1.5-1.8.2,3.3,11.6,5.5,2.6,3.8.1.7,5.5Z"/><path id="zambia" class="cls-1" d="M109.7,159.6l3.2,4.4,4.9.3,1.7,1,5.1.1,4.4-6.2,12.4-5.5,1.1-4.9-1.4-7-6.5-3.7-4.3.3-2.2,4.8.1,2.2,5.1,2.5.3,5.4-4.4.2-1.1-1.8L116,146.5l-.4,4-5.7.2-.2,8.9Z"/><path id="angola" class="cls-1" d="M83.8,131.6l3.4,12.7-.1,4-5,5.4-.8,8.7,19.2.2,6.2,2.3,5.2-.7-3-3.8V149.7l5.9-.3v-4.2L110,145l-1-9.9h-2l-1.1-1-1.2.1-1.6,3.1H97.2l-1.4-1.4.4-2-1.7-2.4-10.7.1Z"/><path id="malawi" class="cls-1" d="M142.4,154.3l3.1,3.3-.1,4.2.6,1.8,4.1-4.5-.5-5.7-2.2-1.7-2-10-3.4-.1,1.5,7.2-1.1,5.5Z"/><path id="mozambique" class="cls-1" d="M136.4,188.2l2.7,2.2,6.3-3.9,1-5.7v-9.5l10.2-8.3,1.7.1,6.2-5.9-1-12.2-16.3,2.1.5,3.7,2.8,2.2.7,6.6-5.5,5.4-1.3-3,.2-4-3.2-3.4-7.8,3.6,7.2,3.7.2,10.7-4.8,7.1.2,8.5Z"/><path id="zimbabwe" class="cls-1" d="M119.9,167.2l9,10.1,6.9,1.8,4.6-7.2-.4-9.6-7.5-3.9-2.8,1.3-4.2,6.4-5.8-.1.2,1.2Z"/><path id="namibia" class="cls-1" d="M91.7,196.9l3.4.2,2,2,4.7.1,1.1-13.3v-8.7l3-.6,1.1-9.1,7.6-.2,2.7-2.2-4.5-.2-6.2.8-6.6-2.4H81.3l.5,5.3,6.2,9.2-1.1,4.7L87,185l4.7,11.9Z"/><path id="botswana" class="cls-1" d="M103.7,186.1l2.1.7-.3,6.1,2.2.3,5.1-4.6,6.1.7,1.6-4.1,7.7-7-9.3-10.7-.1-1.8-1-.3L115,168l-7.3.2-1,9.1-2.9.7-.1,8.1Z"/><path id="swaziland" class="cls-1" d="M136.1,188.9l-2.5.4-1.1,3,1.9,1.8h2.3l2-2.8-2.6-2.4Z"/><path id="lesotho" class="cls-1" d="M122.6,200.3l3-2.4,1.4.1,1.7,2.2-.2,2.2-2.9,1.1v.8l-3.2-.2-.8-2.4,1-1.4Z"/><path id="south_africa" data-name="south africa" class="cls-1" d="M129.4,178.5l-7.9,7.3-1.9,4.5-6.3-.8-5.2,4.6-3.5-.3.3-6.4-1.2-.4-.9,13.1-6.1-.1-1.9-2.2H92.1l2.5,7.1,4.4,4.2-3.1,3.7,2,4.6,4.7,1.8,3.8-3.2,10.8.1.8-1,4.8-.8L139,198.2l-.1-5.1-1.7,2.2h-2.6l-3.2-2.6,1.6-4,2.8-.6-.3-8.2-6.1-1.4ZM125.6,197l1.5-.1,2.5,2.7-.1,3.1-2.9,1.5-.2,1H122l-1.4-3.3,1.3-2.4,3.7-2.5Z"/><path id="madagascar" class="cls-1" d="M187.5,147.8l-2.1,5.1-3.7,6.4-6.4.5-2.7,3.2.5,9.8-4,4.6.5,7.8,3.3,3.8,4-.5,4-2.9L180,181l9.1-15.8-1.8-2,1.8-3.8,2,.6.6-1.5-1.8-7.8-1.1-3.2-1.3.3Z"/></g></g></svg>