<svg xmlns="http://www.w3.org/2000/svg" viewBox="0 0 651.9 533"><defs><style>.cls-1{fill:#9e8363;}</style></defs><title>資產 3</title><g id="圖層_2" data-name="圖層 2"><g id="svg2"><path id="kalimantan" class="cls-1" d="M59.5,324l-2.3,8.7-12.5,4.2-3.8-4.4-1.8.5,3.4,13.1,5.1.6,6.8,2.6v2.6l3.1-.6L62,345v-5.1l2.5-5.1,2.8.6-3.4-7.1-.5-4.6-3.9.3Z"/><path id="papua_new_guinea" data-name="papua new guinea" class="cls-1" d="M130.6,347.9l-.4,24.4,3.5-.2,4.6-5.4,3.9.2,2.5,2.2.8,6.9,8,4.2,2-.8v-2.5l-6.4-5.3-3.2-7.3,2.5-1.2-1.8-4-3.7-.1-.9-4.3-9.8-6.6-1.6-.2Z"/><path id="mexico" class="cls-1" d="M352.5,225l4.8,15.2-2.3,1.3.3,3,4.3,3.3v6.1l5.3,5L362.6,244l-3-9.8.8-6.8,2.5.3,1,2.3-1,5.8,13,25.4v9.1l10.5,12.3,11.5,5.3,4.8-2.8,6.8,5.5,4-4-1.8-4.5,5.8-1.8,1.8,1,1.8-1.8h2.8l5-8.8-2.5-2.3-9.8,2.3-2.3,6.5-5.8,1-6.8-2.8-3-9.6,2.3-12.1-4.6-2.9-2.2-11.6-1.9-.8-3.4,3.4-3.9-2.1-1.5-7.7L368,230.6l-7.9-6-7.6.4Z"/><path id="greenland" class="cls-1" d="M536.1,49.7l-1.4,2.2,2.5,2.5-1.1,2.5,3.5,4.6,4.4-1.4,5.7-.5,6.5,7.1,4.4,11.7-3.5,7.3,4.9-.8,2.7,1.6L565,90l-6,.3,3.3,3.3,4.1.8-9,12-1.1,7.3,1.9,6-1.4,3.5,2.5,7.6,4.6,5.2,1.4-.3,3-.8.3,4.4,1.9,2.7,3.5-.3,2.7-10.1,8.2-10.1,12.1-4.9,7.6-9.5,3.5,1.6h7.3l6-6,7.3-3,.8-4.6L624.9,91,621,89.6l-2.2-5.7,5.2-3,8.2,4.3,2.7-3-4.4-2.4,9.3-12.5-1.6-5.4-4.4-.3,1.6-4.9,5.4-2.5,11.1-9.8-3.3-3.5L636.1,42l-6.5,6.5,3.8-8.4L629,39l-2.5,4.3-3.5-3-9.8,1.1,2.7-4.3,16-.5-4.1-5.4-17.4-3.3L603.3,29l.3,3.5-7.3-2.4.3-2.5-5.2,1.1-1.1,2.7,5.4,1.9L590,37.4l-4.1-4.6-5.7-1.6-.8,4.3h-5.7l-2.2-4.6-9-1.4-4.9,2.4-.3,3.3-6.3-.8L547.2,36l.3,3.8v1.9l-7.1,1.4-3.3-2.2-2.2,3.5,3.3,3.5,6.8-.8.5,2.2-5.2,2.5-4.2-2.1Z"/><path id="disko" class="cls-1" d="M557.9,92.1l1.6,2.4-.8,3h-1.6l-2.2-2.4.5-1.9,2.5-1.1Z"/><path id="australia" class="cls-1" d="M39,427.6,38.7,453l-3.9,2.9-.3,2.5,5.3,3.6,13.1-2.5h6.7l2.5-3.6L77,453l10.6,3.2-.7,4.3,1.4,4.3,8.2-1.4.3,2.1-5.3,3.9,1.8,1.4,3.9-1.4-1.1,11.8,7.5,5.7,4.3-1.4,2.1,2.1,12.4-1.8,11.7-19,4.3-1.1,8.5-15.7,2.1-13.6-5.3-6.8,2.1-1.4L141.5,415l-4.6-3.2.7-17.9-4.3-3.2-1.1-10h-2.1L123,404.3l-3.9.4-8.9-8.9,5-13.2-9.2-1.8-10.2,2.8L93,391.8l-4.6,1.1-.3-5.7L69.2,398.6l.3,4.3-2.8,3.9H59.6l-15.3,6.4L39,427.6Z"/><path id="tasmania" class="cls-1" d="M103.5,495.9l-1.8,7.1.3,5,5.3-.4,6-9.3-9.8-2.4Z"/><path id="new_zealand_north_island" data-name="new zealand north island" class="cls-1" d="M190.8,481.6l1.1,11.8-1.4,5.4-5.3,3.9.3,4.6v5l1.4,1.8,14.5-12.5v-2.9h-3.5l-5-16.8-2.1-.3Z"/><path id="new_zealand_south_island" data-name="new zealand south island" class="cls-1" d="M180.2,507.3l2.8,5.4-7.8,7.5-.7,3.9-5.3.7-8.9,8.2-8.2-3.9-.7-2.9,14.9-6.4,13.9-12.5Z"/><path id="sumatra" class="cls-1" d="M.3,317.2,0,319.5l6.8,11.4h2L23,354.6l5.7.6,2.8-8.3L27,344l-.8-4.6L.3,317.2Z"/><path id="east_malaysia" data-name="east malaysia" class="cls-1" d="M41.9,332.5l3,3.5,11.6-4,2.3-8.8,5.2-.4,4.7-3.4-6.1-4.5-1.4-2.5-3,5.6,1.1,3.2-1.8,2.7L54,323l-8.4,6.2.2,3.6-3.9-.3Z"/><path id="brunei" class="cls-1" d="M57.6,318.8l-2.9,3.5,2.4.7,1.3-1.9-.8-2.3Z"/><path id="sulawesi" class="cls-1" d="M67.3,348.7l2.3,2.8-1.5,4.2v.8h3.3l1.2-10.4,1.1.3,2,9.5,1.9.5,1.8-4.1-1.8-6.1-1.5-2.7,4.6-3.4-1.1-1.5-4.4,2.9H74l-2.2-3.2.7-1.4,3.6-1.8,5.5,1.7,1.7-.1,4.1-3.9-1.7-1.7-3.8,3H79.4l-3.7-1.8-2.7.1-3,4.8-1.9,8.2-.8,3.3Z"/><path id="maluku" class="cls-1" d="M92,330.1l-1.9,4.5,3,3.9h1l1.3-2.6.7-.9-1.3-1.4-1.9-.7-.9-2.8Z"/><path id="seram" class="cls-1" d="M97.8,345l-4,.9-1.2,1.3,1,1.7,2.7-1,1.7-1,2.5,2,1.1-.9-2-2.4-1.8-.6Z"/><path id="java" class="cls-1" d="M31,357.9l-2.8,1.9.6,1.6,8.8,2,4.4.8,1.9,2,5,.4,2.4,2,2.2-.5,2-1.8-3.6-1.7-3.1-2.7-8.2-2-9.6-2Z"/><path id="bali" class="cls-1" d="M59.6,366.5l-2.2,1.2,1.3,1.4,3.1-1.2-2.2-1.4Z"/><path id="lombok" class="cls-1" d="M63.3,365.6l.4,1.9,2.3.6.9-1.1-1-1.5-2.6.1Z"/><path id="sumba" class="cls-1" d="M68.7,370.6l-2.8.4,2.5,2.1h2l-1.7-2.5Z"/><path id="flores" class="cls-1" d="M69.5,367.3l-.6,1.2,4.4.7,3.4-2-2-.6-3.1.9-1.2-1-.9.8Z"/><path id="timor" class="cls-1" d="M83.9,368l-5.1,4.3.5,1.1,2.2-.4,2.5-2.4,5-.7-1-1.7-4.1-.2Z"/><path id="new_ireland" data-name="new ireland" class="cls-1" d="M158.3,348.6l-.9,1.3,4.8,4.3.7,2.5,1.3-.1.2-2.6-1.5-1.3-4.6-4.1Z"/><path id="new_britain" data-name="new britain" class="cls-1" d="M160.7,354.6l-1,.2-.6,2.6-1.8,1.2-5.5,1,.2,2.1,5.8-.3,3.7-2.3-.2-4-.6-.5Z"/><path id="bougainville" class="cls-1" d="M167.2,359.1l1.2,3.5,2.2,2.1.7-.6-.2-2.3-2.5-3-1.4.3Z"/><path id="choiseul" class="cls-1" d="M173.2,364.2l.2,2.3,1.4,1.3,1.3-.8-1.2-2.4-1.7-.4Z"/><path id="new_georgia" data-name="new georgia" class="cls-1" d="M175,369.9l-1.2,1.3,1.2,2.3,1.5.4-.1-1.5-1.4-2.5Z"/><path id="santa_isabel" data-name="santa isabel" class="cls-1" d="M177.8,368.6l1,2.5,2,2.4,1.1-1.8-1.5-2.5-2.6-.6Z"/><path id="malaita" class="cls-1" d="M182.9,372.3l.6,3.1,1.4,1.9,1.2-2.4-3.2-2.6Z"/><path id="santa_ana" data-name="santa ana" class="cls-1" d="M184.5,379.2l-.5.9,1.7,2.2,1.2.1-.7-2.9-1.7-.3Z"/><path id="st._lawrence_island_west" data-name="st. lawrence island west" class="cls-1" d="M284.2,52.9l3.5,6.5,2.2-.5V56.7l-5.7-3.8Z"/><path class="cls-1" d="M150.54,17.1l-4.2,7.6,8.1,5.1,9-7.6,5.5,9.2-5.7,1.2-2.3,5.9,12.7,17.2,7.7,1.3,11,2.2,1.4-4,3.8,1.5.7,16.8-7.1,11.7,3.4.8,9-18.9,2.7-14.2-5.5-2.6-.9-19,4.3.8V43.5l4.7,4.1,2.7-9.9-2.2-5.9,6.6,3.2.7-35-75.8.1-4.4,3.3.6,6.8,13.4,1.8,10.3-2.3L157,16.6l-6.5.5ZM216.2,54.5l14,1.6,2.3,4.8,11.2-6.5,18.7-2.6,1.3-9.7,9.3-3.4,6.1-5.8v7.8l6.2,8.5,13-8.2-6.2-7.1-7.8-21L274.9,2.3l-6.6-.5L268,7.6l-5.5,2.7-1.7-3.4L264,0H216.3l-.1,54.5Z"/><path id="wrangel-w" class="cls-1" d="M293.5,2.9l-3.9,3.5L290.8,9l2-1.4L294,8.9l3.9-1.4-.1-2.2-4.3-2.4Z"/><path id="unalaska_west" data-name="unalaska west" class="cls-1" d="M264.7,109.9l-.2,3,2.2-.5v-1.3l-2-1.2Z"/><path id="umnak_west" data-name="umnak west" class="cls-1" d="M261.3,111.2l-4.3,2.2.7,2.3,1.7-1.3,3.3-1.5-1.4-1.7Z"/><path id="another_aleutian_west" data-name="another aleutian west" class="cls-1" d="M243.4,114l-3-.7-.5,1.3.3,2.5,3.2-3.1Z"/><path id="adak_west" data-name="adak west" class="cls-1" d="M237.1,113.9l-2.8-1.2-1,1.8,1.8,1.8,2-2.4Z"/><path id="amchitka_west" data-name="amchitka west" class="cls-1" d="M227.3,111.2l-1.3-1.8-1.3.5v2.5l1.5,1,1.1-2.2Z"/><path id="attu_west" data-name="attu west" class="cls-1" d="M216.5,99.3l1.7,1.2-.5,1.3h-1.2V99.3Z"/><path id="kauai" class="cls-1" d="M225,248.3l-.1,2.3,2,1.4,1.2-1.1-3.1-2.6Z"/><path id="oahu" class="cls-1" d="M230.3,251.7l-1.9,1.4,1.6,2.1,1.9-1.6-1.6-1.9Z"/><path id="kahului" class="cls-1" d="M234.1,255l-1.6,2.2.5,1.4,2.3-1.1-1.2-2.5Z"/><path id="hawaii" class="cls-1" d="M236.8,259.2l-1,5.5,1,2,3.1-1,1.6-2.7-3.4-3.1-1.3-.7Z"/><path id="raiatea" class="cls-1" d="M242.3,402.3l-1.9-.1-.1,1.8,1.5,1,1.8-1.1-1.3-1.6Z"/><path id="tahiti" class="cls-1" d="M248.8,404.2l-2.7,1.8,2,2.5,1.8-.4,1-1.2-2.1-2.7Z"/><path id="guadeloupe" class="cls-1" d="M491.6,283l-1.5.6.5,1.3,1.8-1.1-.4-.4-.4-.4Z"/><path id="dominica" class="cls-1" d="M494.1,284.5l-.9,1.9,1.1,1.4,1.3-1.1-1.5-2.2Z"/><path id="martinique" class="cls-1" d="M497.1,289.6l-1.1,1,.8,1.6,1.5-.4-1.2-2.2Z"/><path id="st._lucia" data-name="st. lucia" class="cls-1" d="M497,293.6l-.7,1.5,1.1,1.2,1.5-.8-1.9-1.9Z"/><path id="st._vincent" data-name="st. vincent" class="cls-1" d="M497.1,297.4l-1.2.9,1,1.8,1.6-.9-1.4-1.8Z"/><path id="grenada" class="cls-1" d="M495.6,300.9l-1.1,1.1.4.7h1.4l.4-1.2-1.1-.6Z"/><path id="trinidad" class="cls-1" d="M497.2,304.4l-1.1,1-1.1.2V307l2.1,2,.9-1.4.5-1.6-.2-1.3-1.1-.3Z"/><path id="puerto_rico" data-name="puerto rico" class="cls-1" d="M486,280.7l-2.6-.9-2.1,1.3,1.1,1.2,3.6.5v-2.1Z"/><path id="haiti-dominican_border" data-name="haiti-dominican border" class="cls-1" d="M465.9,275l-1.7,1.7,1.9.8.3,2.4-4.2.4.4,2.3,1.2.1.7-1.1,4.9.2.9,1.7,1.1-1.3,3.3-.9,2.9.6.3-1.8-5.3-3.5-3.4-1.3-3.3-.3Z"/><path id="domincan_republic" data-name="domincan republic" class="cls-1" d="M478.1,280l-5.3-3.5-2.5-.9-.8,6,.9,1.7,1.1-1.3,3.4-.9,2.9.6.3-1.7Z"/><path id="haiti" class="cls-1" d="M465.9,275l3.4.4-.4,4.2-.3,2.2-4-.2-.7,1.1-1.2-.1-.4-2.3,4.2-.4-.3-2.4-1.9-.8,1.6-1.7Z"/><path id="falklands_west" data-name="falklands west" class="cls-1" d="M523,507.8l-2.6-.3-2.6,1.8,1.9,2.1,3.3-3.6Z"/><path id="falklands_east" data-name="falklands east" class="cls-1" d="M525.6,506.5l-.9,2.8-2.5,2.2.1.7,4.2-1.6,1.8-2.2-2.7-1.9Z"/><path id="cuba" class="cls-1" d="M435.9,266.5v1.3l5.3.1,2.5-1.5.4,1.1,5.2,1.3,4.6,4.2-1.1,1.5.2,1.7,3.9,1,3.9-1.8,1.7-1.8-2.5-1.3-12.9-7.6-4.5-.5-6.7,2.3Z"/><path id="bimini" class="cls-1" d="M454.6,258.7l-1.3-.4-.1,2.4,1.6,1.6,1.1-1.6-1.3-2Z"/><path id="andros" class="cls-1" d="M457.1,262.5l-1.7,1,1.6,2.3.9-1.2-.8-2.1Z"/><path id="inagua" class="cls-1" d="M462.7,264.3l-1.8-.1.2,1.2,1.4,2,1.2-1.3-1-1.8Z"/><path id="eleuthera" class="cls-1" d="M461.9,261.9l-3-1.3-.6-3,1.2-.5,1.2,2.3,1.2.9v1.6Z"/><path id="grand_bahama" data-name="grand bahama" class="cls-1" d="M459,255.8l-1.6-.4-.3-1.9-1.6-.6,1.1-1.1,1.9.7,1.4.9-.9,2.4Z"/><path id="jamaica" class="cls-1" d="M453.9,279.2l-3.5.9v1l2,1.2h2.1l1.4-1.6-2-1.5Z"/><path id="irian_jaya" data-name="irian jaya" class="cls-1" d="M109.7,338.9l-4.2.5-2.7,2,1.1,2.2,4.5.8v.8l-2.9,2.3,1.4,4.9,1.4.1,1.2-4.8h2.2l.9,4.7,10.8,9,.3,7,3.7,4,1.7-.1.4-24.7-6.3-4.4-5.9,4-2.1,1.3-3.5-2.2-.1-7.1-1.9-.3Z"/><path id="alaska-westcopy" class="cls-1" d="M308.1,44.5l-8.4,2,1.7,9.5,9.1,2.5.5,2-13.5,4.1-7.7,12.7,2.7,13.4,4.4,3,3.5-3.2,1,2-4.2,5L281,104.9l-10.4,2.5-.3,3.7,23.9-7,9.9-2.7,9.1-11.2,10.1-6.7-5.2,8.7,5.7.8,9.6-4.2,1.7,7,6.7,1.5,6.9,6.7.5,5-1,1.2,1.2,4.7h1.7l.3-8h2l.5,19.6,4.9-4.2-3.5-20.4h-5.2l-5.7-7.2,27.9-47.3L344.7,25.8l-30.8,6-1.2,9.5,6.7,4-2.5,6.5-8.8-7.3Z"/><path id="galapagos" class="cls-1" d="M410,337.8l-.6,2.8-1.1,1.2.8,1.4,2-.8,1-1.7-.6-1.8-1.5-1.1Z"/><path id="banks" class="cls-1" d="M418.7,35.5l.2,4-8,8.3,2,6.7,5.8-1.6L422,48l8.4-3.1,6.9-.5L432,38.6l-2.7,2-2-.7-1.1-2.5-2.4-2.5-5.1.6Z"/><path id="prince_patrick" data-name="prince patrick" class="cls-1" d="M429.1,23.6l-1.8,3.1,8.6,3.1,3.1-4.7,1.3,3.1h2.2l4.2-4.7-5.1-1.3-2-1.6-2.7,2.7-7.8.3Z"/><path id="eglinton" class="cls-1" d="M444.2,29.9l-6.9,2.9V35l8.9,3.3-2,2.2,1.3,2.9,5.5-2.5h4.7l2.3,3.7,3.8-3.8-.9-3.6-3.1,1.1-.4-4.5,1.6-2.7h-1.6L455,32.7l-1.1.9.7,3.1L452.8,38l-2.7-.2-.7-4-5.2-3.9Z"/><path id="mackenzie_king" data-name="mackenzie king" class="cls-1" d="M453.3,23l-.7,2.2,4.2,2,3.1-1.8-.2-1.3L453.3,23Z"/><path id="king_christian" data-name="king christian" class="cls-1" d="M456.6,19.2l-3.1,1.1.2,1.6,6.9-.5-.2-1.6-3.8-.6Z"/><path id="ellef_ringnes" data-name="ellef ringnes" class="cls-1" d="M471.5,23l-.4,1.6L470,26.2v2.2l4.2-.7,4.4,3.8h1.5V27.7l-4.4-4.9-4.2.2Z"/><path id="amund_ringnes" data-name="amund ringnes" class="cls-1" d="M482.8,27.4l1.8,2-1.5,2.7,1.1,2.9,4.9-2.7v-2l-2.9-3.4-3.4.5Z"/><path id="axel_heiberg" data-name="axel heiberg" class="cls-1" d="M489.2,22.3l.2,3.6h6l1.5,1.3-.2,1.6-5.3.7,3.8,5.1,5.1.9,7.1-3.1L497.2,17l-3.1,2,.2,2.7-3.5-1.3-1.6,1.9Z"/><path id="victoria" class="cls-1" d="M437.6,47.6l-8.4,2.2-4.9,4.3.4,4.7,8.9,2.7-2,4.5-6.4-4-1.8,3.4,4.2,2.9-.2,4.7,6.4,1.8,7.8-.4,1.3-2.5,5.8,6.5,4-1.3.7-4.5,2.9,2,.4-4.5-3.6-2.2.2-14.1-3.1-2.5-3.3,4.5-9.3-8.2Z"/><path id="prince_of_wales" data-name="prince of wales" class="cls-1" d="M464.6,57.4l-2.9-1.3-1.6,2,3.1,4.9.2,4.7,6.6-4V57.9l2.4-2.5L470,53.6h-4l-1.4,3.8Z"/><path id="prescott" class="cls-1" d="M478.8,55.4l-4.7,3.8,1.1,4.7h2.9l1.3-2.5,2,2,2-.2,5.3-4.5-9.9-3.3Z"/><path id="cornwallis" class="cls-1" d="M478.4,48l-1.1,2.2,4.9,1.8,1.3-2-5.1-2Z"/><path id="bathurst" class="cls-1" d="M475.5,39.5l-4.9.7-2.9,2.7,5.3.2-1.5,4,1.1,1.8,1.5-.2,3.8-6-2.4-3.2Z"/><path id="devon" class="cls-1" d="M483.9,37.9l-2.7.9.4,3.6,4.4,2.9.2,2.2-1.3,1.3.7,4.5,17.1,5.6,4.7,1.6,4.7-4L506.6,52l-5.1,1.3-7.1-.7-2.7-2.7-.7-7.3-4.4-2.2-2.7-2.5Z"/><path id="baffin" class="cls-1" d="M497.9,61.2l-4.9-.5-5.8,2.2-3.1,4.2.9,11.6,9.5.4,9.1,4.5L510,91l4.9-.2-1.3,6.9-4.4,7.4-4.9,2.2-3.5-.7L499,105l-2.7,3.6,1.1,3.6,3.8.2,4.7-2.2,4,10.3,10,6.5,6.9-8.7-5.8-9.4,3.3-3.8,4.7,7.8,8.4-7.4-1.5-3.3-5.8,1.8-4-10.9,3.8-6.3-7.5-8-4.2,2.9-4-8.7-8.4,1.1-2.3-10.5-6.9,4.7-.7,5.8h-3.8l.4-5.1,5.4-7.8Z"/><path id="bylot" class="cls-1" d="M507.9,65.2,506.1,67l1.5,2.5,7.3.9-4.7-4.9-2.3-.3Z"/><path id="ellesmere" class="cls-1" d="M500.8,40v2l-4.9,1.1,1.3,2.2,5.5,2.2,6.2.7,4.4,3.1,4.4-2.5-3.1-3.1h4L521,43l6-.9V40.8l-3.3-2.2.4-2.5,9.3,1.6,13.8-5.4-5.1-1.6,1.3-1.8H554l1.8-1.8-21.4-7.5-5.1-1.8-5.5,4-6.2-5.1-3.3-.2-.7,4.3L509.4,17l-4.9,1.6.9,2.5,7.3,1.6-.4,3.6,4,2.5,9.8-2.5.2,3.4-8,3.8-4.9-3.8-4.4.5,4.4,6.3-2.2,1.1-3.3-2.9-2.4,1.6,2.2,4.2h3.8l-.9,4-3.1-.5-4-4.3-2.7.3Z"/><path id="southhampton" class="cls-1" d="M481,101.4l-4.2,5.3-.3,5.9,3.7-2.1h4.5l3.2,2.9,2.9-2.4-9.8-9.6Z"/><path id="newfoundland" class="cls-1" d="M532.5,170.6l-10.6,10.1,1.1,2.4,12.9,4.8,1.9-3.2-1.1-5.3-4.2.5-2.4-2.7,4-4-1.6-2.6Z"/><path id="canada" class="cls-1" d="M373.2,48.3l2,3,1,4,5,1.3,3.5-3.8,3,1.5,8.5.8,6-2.5,1,8.3h3.5V57.4l3.5.3L418.9,68l5.7,3.5-3,4.8,1.3,1.3,11.1,2,.3,5,3,.5.7-7.5,4.7-1.3,3.5,5.3,7.5,3.5,3.7.8,2.5-3,.3-4.8,4.5-2.8,1.5,4-4,7,.5,3.5,2.2-3.5,4.5-4,.3-5.3-2.5-4,.8-3.3,6-3,2.7,2,.5,17.6,4.2-3.8,2.5,1.5-3.5,6,4.5,1,6.5-10,5.5,5.8-2.2,10.3-5.5,3L484,97.6l-9.5,2,1,3.3-2.5,4-7.7,1.8-8.7,6.8-7.7,10.3-1,3.3,5.2,2,2,5,7.2,7.3,11.5,5-2.5,11.5-.3,3.3,3,2,4-5.3.5-10,6.2-.3,3-5.8.5-8.8,8-15.6,10,3.5,5.2,7.3-2.4,7.4,4,2.3,9.7-6.5,2.7,17.8,9,10.8.3,5.5-10,2.5-4.7,5-10-2.3-5-.3-8.7,6.8,5.2-1.3,6.5-1.3,1.3,1.5-1.7,5.5.3,5,3,2,3-.8,1.5-2.3h2l-3.2,6-6.2.3-2.7,4h-3.5l-1-3,5-5-6,2-.3-8.5-1.7-1-5.2,2.3-.5,4.3h-12l-10.2,7-13.7,4.5-1.5-2,6.9-10.3-3.9-3.8-2.5-4.8-5.1-3.9-5.4-.4-9.8-6.8L364,157l-1.2-4.8-6.5-6v-5l1-4.5-.5-2.5-2.5-2.5-.5-4,6.5-4.5-4-21.6-5.5-.3-5-6.5,27.4-46.5Z"/><path id="usa" class="cls-1" d="M363.8,157.9l-1,4-3.5-2.3h-1.7l-1,4.3-12.2,27.4,3.2,23.8,4,2,.8,6.5h8.2l8,6,15.7,1.5,1.7,8,2.5,1.8,3.5-3.5,2.7,1.3,2.5,11.5,4.2,2.8,3.5-6.5,10.7-7.8,7,3.3,6,.5.3-3.8,12.4.3,2.5,2.8.5,6.3-1.5,3.5,1.7,6h3.7l3.7-5.8-1.5-2.8-1.5-6,2.2-6.8,10.2-8.8,7.7-2.3-1-7.3,10.7-11.6,10.7-1.8-1.7-6,10.5-6v-8l-1-.5-3.7,1.3-.5,4.9-12.4.1-9.7,6.5-15.3,5-2.4-3,6.9-10.5-3.4-3.3-2.3-4.4-4.8-3.9-5.3-.4-9.9-6.8-70.6-11.5Z"/><path id="haida_gwaii" data-name="haida gwaii" class="cls-1" d="M348.8,128l-1.7,3.3.6,2.3,1.1.7-.3.9-1.2.3.3,3.4,1.3,1.3,1-1.1-1.3-3.3.8-2.7,1.9-2.5-1.4-2.3-1.1-.3Z"/><path id="vancouver" class="cls-1" d="M354.4,147.5l-1.5.6,2.8,3.3.7,3.9,2.8,3,2.4-.4V154l-2.9-1.8-4.3-4.7Z"/><path id="guatemala" class="cls-1" d="M409.9,291.1l5.9,4.3,6-7.4-1-1.5-2-.1V282l-1.5-.9-4.6,1.4,1.8,4.1-4.6,4.5Z"/><path id="honduras" class="cls-1" d="M422.6,288.4l9.2-.4,2.7,3.3-1.7-.4-3.3.1-4.3,4-1.8,4.1-1.2-.6V294l-2.7-1.8,3.1-3.8Z"/><path id="el_salvador" data-name="el salvador" class="cls-1" d="M416.6,295.9l4.7,2.3-.1-3.7-2.4-1.5-2.2,2.9Z"/><path id="nicaragua" class="cls-1" d="M432.7,291.7l2.2.4.1,4.5-2.6,7.3-6.9-.7-1.5-3.5,2-4.3,3.9-3.6,2.8-.1Z"/><path id="costa_rica" data-name="costa rica" class="cls-1" d="M432.4,304.6l1.4,2.7,1.1,1.5-1.5,4.5-2.9-2-4.7-4.3v-2.9l6.6.5Z"/><path id="panama" class="cls-1" d="M435.6,309.2l-1.5,4.6,4.8,1.3,3,.6.5-3.5,3.2-1.6,2.9,1.5,1.1,1.8,1.4-.2,1.1-3.3-3.6-1.5-2.7-1.5-2.7,1.8-3.2,1.6-3.3-1.3-1-.3Z"/><path id="colombia" class="cls-1" d="M468.7,299.4l-2.1-.2L453,310.4l-1.4,4-1.9.2.8,8.7-4.8,11.6,5.2,4.4,6.6.4,4.5,6.7,6.6.2-.2,5h2.5l2.7-9.1-2.5-3.1.6-5.8,5.2-.4-.6-13.5L464.7,316l-2.7-7.3,6.7-9.3Z"/><path id="venezuela" class="cls-1" d="M465.5,305.5l.4,2.6,3.3,1,.7-4.8,3.4-3.5,3.4,4,7.9,2.1,6.7-1.4,4.5,5.6,3.4,2.1-3.8,5.7,1.3,4.3-2.1,2.7-2.2,1.9-4.8-2.4-1.1,1.1V330l3.5,1.7-2.6,2.8-2.6,2.8-3.4-.3-3.5-3.8-.7-14.3-11.8-4-2.1-6.3,2.2-3.1Z"/><path id="guyana" class="cls-1" d="M500,313.7l7.2,6.5-2.9,3.3-.2,2,3.8,3.9-.1,3.7-6.6,2.5-3.9-5.3.8-6.4-1.7-4.8,3.6-5.4Z"/><path id="suriname" class="cls-1" d="M508.1,320.7l2,1.9,3.2-2,2.9.1-.4,1.1-1.2,2.5-.2,6.3-5.8,2.3.3-4-3.7-3.5.2-1.8,2.7-2.9Z"/><path id="guyane" class="cls-1" d="M517.1,321.4,523,325l-3.1,6.1-1.1,1.4-3.3-1.9.1-6.5,1.5-2.7Z"/><path id="ecuador" class="cls-1" d="M445.2,335.4l-4.7,2.9-.3,4.4-.9,1.4,3,2.9-1.3,1.4.3,3.6,5.3,1.3,8.1-9.5v-3.3l-3.9-.3-5.6-4.8Z"/><path id="peru" class="cls-1" d="M440,349.1l-1.9,2,.1,3.1,16.9,30.9,17.6,11.3,2.7-4.6.6-10-1.4-6.3-4.8-8.1-2.9.9-1.3,1.4-5.7-6.5,1.4-7.7,6.6-4.3-.5-4-6.7-.3-3.5-5.9-1.9-.6.1,3.5-8.7,10.3-6.5-1.6-.2-3.5Z"/><path id="bolivia" class="cls-1" d="M473.7,372.4l8.2-3.6,2.7.3,1.8,7.6,12.5,4.2,2.1,6.4,5.2.6,2.2,5.5-1.5,5-8.4.6-3.1,8-6.6-.1-2.1-.4-3.8,3.7L481,410l-6.5-15,1.8-2.7.7-10.7-1.6-6.3-1.7-2.9Z"/><path id="paraguay" class="cls-1" d="M506.8,399.1l2.2,2.4-.3,5.1,6.3-.4,4.8,6.1-.4,5.5-3.1,4.7-6.3.3-.3-2.6,1.8-4.3-6.2-3.9h-5.2l-3.9-4.2,2.8-8.1,7.8-.6Z"/><path id="uruguay" class="cls-1" d="M515.4,431.5l-2,2.2.9,11.8,6.4,1.9,8.2-8.2-13.5-7.7Z"/><path id="argentina" class="cls-1" d="M520.5,417.8l1.9,1.8-7.4,11-2.6,2.9.9,12.5,5.7,6.9-4.8,8.3-3.6,1.6h-4.1l1.2,6.5-6.5,2.2,1.5,5.5-3.9,12.4,4.8,3.9-2.6,6.4-4.4,6.9,2.3,4.8-5.7.9-4.7-5.7-.8-17.9-7.2-30.3,2.2-10.6L478,434.3l3.1-17.6,2.9-3.4-.7-2.6,3.7-3.3,8.2.6,4.6,4.9,5.3.1,5.4,3.3-1.6,3.7.4,3.8,7.6-.4,3.6-5.6Z"/><path id="tierra_del_fuego_chile" data-name="tierra del fuego chile" class="cls-1" d="M500,513.7l-4.3,9.4,7.4.8.1-6.3-3.2-3.9Z"/><path id="tierra_del_fuego_argentina" data-name="tierra del fuego argentina" class="cls-1" d="M503.9,518.4l.3,5.7,4.4-.4,3.8-2.5-6.3-1.3-2.2-1.5Z"/><path id="chile" class="cls-1" d="M498.6,512.2l-3.2,3.5-.4,4.2-6.2-3.5-6.6-9.5-1.9-3.4L483,500l-.3-4.4-3.1-1.3-2.5-1.8.5-2.5,3.2-.9.6-14.3-5-2.9-3.3-74.6.9-1.5,6.4,14.9h2.1l.7,2.4-2.7,3.3-3.1,17.9,4.5,13.8-2.1,10.4,7.3,30.6.8,17.9,5.2,6.1,5.5-.9Z"/><path id="chiloe" class="cls-1" d="M477.3,474.7l-1.3,2,.6,3.4,1.3.1.6-4.3-1.2-1.2Z"/><path id="brazil" class="cls-1" d="M529.2,438.4l6.3-12,.2-10.1,11.7-7.5h6.5l5.1-8.7.9-16.7-2.1-4.5,12.4-11.3.5-12.5-16.8-8.2-20.3-6.3-9.6-.9,2.6-5.4-.7-8.2-2.1-.7-3.1,6.1-1.6,2-4.2-1.8-14,4.9-4.7-5.9.8-6.1-4.4,4.5-4.9-2.6-.5.7v2.1l4.2,2.3-6.3,6.6h-4l-4-4.1-4.5.1-.6,4.9,2.6,3.2-3.1,9.9-3.6.3-5.7,3.6-1.4,7.1,5,5.3.9-1,3.5-.9,3,5,8.5-3.7,3.3.2,2.3,8.1,12.2,3.9,2.1,6.4,5.2.6,2.5,6.1-1.7,5.5,2.2,2.9-.3,4.3,5.8-.5,5.4,6.8-.4,4.8,3.2,2.7-7.6,11.5,13.3,7.2Z"/><path id="belize" class="cls-1" d="M419.6,282l-.1,3.6h.8l2.9-5.3h-1.9l-1.7,1.7Z"/></g></g></svg>