<?xml version="1.0" encoding="utf-8"?>
<!-- Generator: Adobe Illustrator 16.0.0, SVG Export Plug-In . SVG Version: 6.00 Build 0)  -->
<!DOCTYPE svg PUBLIC "-//W3C//DTD SVG 1.1//EN" "http://www.w3.org/Graphics/SVG/1.1/DTD/svg11.dtd">
<svg version="1.1"
	 id="svg" xmlns:sodipodi="http://sodipodi.sourceforge.net/DTD/sodipodi-0.dtd" xmlns:rdf="http://www.w3.org/1999/02/22-rdf-syntax-ns#" xmlns:inkscape="http://www.inkscape.org/namespaces/inkscape" xmlns:svg="http://www.w3.org/2000/svg" xmlns:dc="http://purl.org/dc/elements/1.1/" xmlns:cc="http://creativecommons.org/ns#" inkscape:version="0.91 r13725" sodipodi:docname="World_map_-_low_resolution.svg"
	 xmlns="http://www.w3.org/2000/svg" xmlns:xlink="http://www.w3.org/1999/xlink" x="0px" y="0px"
	 viewBox="7 97 598 598" enable-background="new 7 97 598 598" xml:space="preserve">
<sodipodi:namedview  bordercolor="#666666" borderopacity="1" guidetolerance="10" id="namedview342" showgrid="false" pagecolor="#ffffff" gridtolerance="10" inkscape:cx="248.04005" objecttolerance="10" inkscape:zoom="1" inkscape:cy="326.05286" inkscape:snap-nodes="true" inkscape:object-nodes="true" inkscape:snap-smooth-nodes="true" inkscape:object-paths="true" inkscape:window-height="980" inkscape:current-layer="svg2" inkscape:window-x="0" inkscape:pageopacity="0" inkscape:window-y="34" inkscape:window-maximized="1" inkscape:pageshadow="2" inkscape:window-width="1920">
	</sodipodi:namedview>
<titl>America_Australia</titl>
<path id="kalimantan" d="M72.903,388.111l-2.069,7.831l-11.252,3.781l-3.419-3.962l-1.62,0.449l3.06,11.792l4.591,0.542l6.121,2.34
	v2.342l2.791-0.541l4.049-5.673v-4.59l2.25-4.589l2.522,0.541l-3.06-6.391l-0.451-4.139L72.903,388.111L72.903,388.111z"/>
<path id="papua_new_guinea" d="M136.902,409.625l-0.36,21.962l3.15-0.182l4.14-4.859l3.511,0.181l2.25,1.979l0.721,6.212
	l7.199,3.781l1.802-0.722v-2.25l-5.761-4.771l-2.881-6.571l2.25-1.079l-1.621-3.603l-3.331-0.088l-0.811-3.871l-8.82-5.939
	L136.902,409.625L136.902,409.625z"/>
<path id="mexico" d="M334.188,299.001l4.323,13.682l-2.069,1.169l0.27,2.699l3.87,2.972v5.49l4.771,4.501l-2.068-13.412l-2.702-8.82
	l0.722-6.121l2.247,0.27l0.904,2.07l-0.904,5.219l11.702,22.864v8.19l9.454,11.072l10.349,4.771l4.325-2.521l6.118,4.951
	l3.603-3.602l-1.622-4.051l5.218-1.62l1.622,0.901l1.621-1.621h2.519l4.505-7.92l-2.25-2.071l-8.821,2.071l-2.07,5.85l-5.22,0.901
	l-6.121-2.522l-2.702-8.64l2.068-10.892l-4.14-2.609l-1.981-10.441l-1.708-0.72l-3.063,3.06l-3.511-1.891l-1.349-6.93l-13.952-1.261
	l-7.111-5.401L334.188,299.001L334.188,299.001z"/>
<path id="greenland" d="M499.45,141.21l-1.261,1.98l2.25,2.25l-0.989,2.25l3.148,4.14l3.963-1.261l5.129-0.449l5.853,6.391
	l3.962,10.53l-3.153,6.572l4.408-0.719l2.432,1.439l0.27,3.15l-5.401,0.27l2.971,2.97l3.69,0.72l-8.104,10.802l-0.988,6.571
	l1.713,5.401l-1.262,3.15l2.251,6.841l4.14,4.681l1.259-0.27l2.704-0.719l0.267,3.96l1.712,2.429l3.151-0.269l2.429-9.09l7.38-9.091
	l10.894-4.411l6.841-8.551l3.15,1.44h6.571l5.401-5.399l6.57-2.701l0.722-4.14l-4.141-3.691l-3.511-1.26l-1.982-5.132l4.682-2.7
	l7.382,3.871l2.43-2.701l-3.963-2.161l8.372-11.251l-1.438-4.862l-3.961-0.269l1.438-4.411l4.862-2.25l9.989-8.821l-2.973-3.15
	l-11.251,0.992l-5.85,5.85l3.419-7.562l-3.962-0.989l-2.247,3.87l-3.152-2.7l-8.82,0.989l2.431-3.871l14.401-0.449l-3.689-4.861
	l-15.664-2.971l-6.39,0.989l0.271,3.15l-6.572-2.16l0.267-2.25l-4.681,0.989l-0.99,2.431l4.861,1.71l-5.13,3.69l-3.69-4.14
	l-5.132-1.44l-0.721,3.871h-5.132l-1.979-4.14l-8.101-1.26l-4.411,2.16l-0.269,2.971l-5.673-0.719l-3.418,1.44l0.269,3.42v1.71
	l-6.392,1.26l-2.97-1.979l-1.979,3.15l2.97,3.15l6.122-0.721l0.449,1.98l-4.681,2.25L499.45,141.21L499.45,141.21z"/>
<path id="disko" d="M519.071,179.374l1.441,2.161l-0.722,2.701h-1.44l-1.977-2.16l0.446-1.71L519.071,179.374L519.071,179.374z"/>
<path id="milne" d="M580.28,173.255l4.143,1.26l-0.27,3.42l-4.411-2.161l-0.99-1.26L580.28,173.255L580.28,173.255z"/>
<path id="australia" d="M54.451,481.364l-0.269,22.863l-3.511,2.61l-0.269,2.247l4.77,3.241l11.79-2.251h6.031l2.249-3.237
	l13.414-2.61l9.541,2.88l-0.631,3.873l1.26,3.87l7.38-1.258l0.269,1.893l-4.77,3.51l1.62,1.259l3.51-1.259l-0.99,10.625l6.751,5.128
	l3.871-1.26l1.892,1.893l11.162-1.619l10.531-17.104l3.87-0.989l7.653-14.13l1.89-12.243l-4.77-6.121l1.891-1.257l-3.872-11.884
	l-4.14-2.884l0.631-16.11l-3.873-2.881l-0.99-9h-1.891l-6.391,21.242l-3.51,0.361l-8.011-8.011l4.502-11.884l-8.281-1.618
	l-9.182,2.52l-2.52,7.38l-4.141,0.992l-0.269-5.131l-17.014,10.26l0.269,3.872l-2.521,3.511h-6.391l-13.771,5.762L54.451,481.364
	L54.451,481.364z"/>
<path id="tasmania" d="M112.508,542.842l-1.62,6.39l0.269,4.503l4.771-0.36l5.4-8.372L112.508,542.842L112.508,542.842z"/>
<path id="new_zealand_north_island" d="M191.089,529.97l0.99,10.626l-1.26,4.86l-4.771,3.51l0.271,4.14v4.503l1.258,1.622
	l13.053-11.255v-2.609h-3.151l-4.501-15.122L191.089,529.97L191.089,529.97z"/>
<path id="new_zealand_south_island" d="M181.548,553.104l2.521,4.861l-7.022,6.752l-0.628,3.511l-4.771,0.629l-8.01,7.383
	l-7.38-3.512l-0.63-2.61l13.412-5.762L181.548,553.104L181.548,553.104z"/>
<path id="sumatra" d="M19.616,381.993l-0.269,2.069l6.121,10.262h1.8l12.781,21.333l5.13,0.54l2.521-7.471l-4.049-2.612l-0.721-4.14
	L19.616,381.993L19.616,381.993z"/>
<path id="east_malaysia" d="M57.06,395.762l2.702,3.153l10.441-3.604l2.069-7.919l4.683-0.36l4.229-3.06l-5.489-4.05l-1.261-2.25
	l-2.7,5.039l0.989,2.881l-1.619,2.432l-3.15-0.811l-7.561,5.581l0.181,3.239L57.06,395.762L57.06,395.762z"/>
<path id="brunei" d="M71.193,383.432l-2.611,3.151l2.161,0.631l1.171-1.713L71.193,383.432L71.193,383.432z"/>
<path id="sulawesi" d="M79.926,410.345l2.069,2.521l-1.351,3.78v0.723h2.971l1.081-9.362l0.991,0.27l1.8,8.551l1.71,0.45
	l1.621-3.691l-1.621-5.49l-1.35-2.429l4.14-3.061l-0.989-1.352l-3.96,2.611h-1.08l-1.98-2.883l0.631-1.258l3.24-1.62l4.951,1.529
	l1.53-0.089l3.69-3.511l-1.529-1.53l-3.42,2.701H90.82l-3.331-1.621l-2.43,0.09l-2.701,4.322l-1.711,7.38L79.926,410.345
	L79.926,410.345z"/>
<path id="maluku" d="M102.158,393.601l-1.712,4.053l2.701,3.509h0.901l1.169-2.339l0.63-0.81l-1.17-1.261l-1.711-0.631
	L102.158,393.601L102.158,393.601z"/>
<path id="seram" d="M107.378,407.015l-3.601,0.81l-1.08,1.171l0.901,1.529l2.43-0.9l1.531-0.9l2.25,1.8l0.989-0.81L109,407.553
	L107.378,407.015L107.378,407.015z"/>
<path id="java" d="M47.25,418.624l-2.52,1.711l0.539,1.441l7.921,1.799l3.96,0.722l1.71,1.8l4.502,0.359l2.161,1.802l1.979-0.449
	l1.802-1.621l-3.241-1.53l-2.79-2.429l-7.38-1.802L47.25,418.624L47.25,418.624z"/>
<path id="bali" d="M72.994,426.366l-1.98,1.081l1.171,1.258l2.79-1.079L72.994,426.366L72.994,426.366z"/>
<path id="lombok" d="M76.323,425.556l0.361,1.711l2.069,0.542l0.81-0.992l-0.901-1.349L76.323,425.556L76.323,425.556z"/>
<path id="sumba" d="M81.184,430.058l-2.52,0.361l2.249,1.891h1.801L81.184,430.058L81.184,430.058z"/>
<path id="flores" d="M81.905,427.087l-0.541,1.08l3.96,0.629l3.061-1.799l-1.801-0.541l-2.791,0.811l-1.079-0.901L81.905,427.087
	L81.905,427.087z"/>
<path id="timor" d="M94.866,427.716l-4.588,3.871l0.449,0.99l1.979-0.359l2.249-2.16l4.503-0.631l-0.901-1.529L94.866,427.716
	L94.866,427.716z"/>
<path id="new_ireland" d="M161.835,410.255l-0.81,1.17l4.321,3.871l0.629,2.25l1.17-0.089l0.181-2.343l-1.351-1.168L161.835,410.255
	L161.835,410.255z"/>
<path id="new_britain" d="M163.995,415.655l-0.901,0.18l-0.54,2.341l-1.621,1.08l-4.95,0.902l0.181,1.891l5.22-0.27l3.331-2.069
	l-0.181-3.6L163.995,415.655L163.995,415.655z"/>
<path id="bougainville" d="M169.846,419.705l1.08,3.153l1.98,1.892l0.63-0.543l-0.18-2.067l-2.251-2.702L169.846,419.705
	L169.846,419.705z"/>
<path id="choiseul" d="M175.247,424.298l0.18,2.068l1.259,1.17l1.17-0.722l-1.08-2.159L175.247,424.298L175.247,424.298z"/>
<path id="new_georgia" d="M176.866,429.427l-1.079,1.17l1.079,2.07l1.353,0.361l-0.09-1.354L176.866,429.427L176.866,429.427z"/>
<path id="santa_isabel" d="M179.387,428.258l0.901,2.249l1.799,2.161l0.991-1.619l-1.35-2.253L179.387,428.258L179.387,428.258z"/>
<path id="malaita" d="M183.978,431.587l0.539,2.791l1.261,1.711l1.08-2.16L183.978,431.587L183.978,431.587z"/>
<path id="st._lawrence_island_west" d="M272.709,144.091l3.149,5.85l1.979-0.45v-1.979L272.709,144.091L272.709,144.091z"/>
<path id="alaska" d="M153.041,111.867l-3.782,6.841l7.292,4.591l8.102-6.841l4.951,8.281l-5.131,1.08l-2.07,5.311l11.433,15.482
	l6.931,1.17l9.901,1.98l1.26-3.602l3.419,1.349l0.631,15.123l-6.392,10.531l3.06,0.721l8.102-17.014l2.43-12.781l-4.951-2.34
	l-0.81-17.103l3.871,0.72v10.26l4.232,3.691l2.429-8.911l-1.979-5.311l5.94,2.881l0.63-31.504l-68.229,0.09l-3.96,2.971l0.54,6.122
	l12.063,1.62l9.271-2.07l-3.33,6.212L153.041,111.867L153.041,111.867z"/>
<path id="chukotka" d="M211.5,145.529l12.602,1.439l2.07,4.321l10.081-5.85l16.833-2.339l1.17-8.731l8.37-3.06l5.492-5.221v7.021
	l5.581,7.651l11.701-7.381l-5.581-6.391l-7.02-18.902l-8.461-9.542l-5.941-0.449l-0.269,5.22l-4.951,2.431l-1.53-3.059l2.882-6.211
	h-42.937L211.5,145.529L211.5,145.529z"/>
<path id="unalaska_west" d="M255.159,195.396l-0.181,2.701l1.979-0.449v-1.171L255.159,195.396L255.159,195.396z"/>
<path id="umnak_west" d="M252.097,196.567l-3.872,1.979l0.63,2.069l1.53-1.169l2.97-1.349L252.097,196.567L252.097,196.567z"/>
<path id="another_aleutian_west" d="M235.985,199.086l-2.701-0.63l-0.45,1.169l0.27,2.249L235.985,199.086L235.985,199.086z"/>
<path id="adak_west" d="M230.313,198.996l-2.521-1.08l-0.899,1.621l1.62,1.621L230.313,198.996L230.313,198.996z"/>
<path id="amchitka_west" d="M221.493,196.567l-1.169-1.619l-1.169,0.449v2.251l1.349,0.9L221.493,196.567L221.493,196.567z"/>
<path id="attu_west" d="M211.772,185.856l1.53,1.081l-0.45,1.169h-1.08V185.856L211.772,185.856z"/>
<path id="guadeloupe" d="M459.394,351.207l-1.351,0.54l0.447,1.168l1.621-0.988l-0.359-0.361L459.394,351.207L459.394,351.207z"/>
<path id="dominica" d="M461.646,352.556l-0.811,1.71l0.99,1.259l1.169-0.989L461.646,352.556L461.646,352.556z"/>
<path id="martinique" d="M464.345,357.147l-0.991,0.9l0.721,1.441l1.353-0.36L464.345,357.147L464.345,357.147z"/>
<path id="st._lucia" d="M464.256,360.749l-0.629,1.352l0.99,1.081l1.352-0.722L464.256,360.749L464.256,360.749z"/>
<path id="st._vincent" d="M464.345,364.168l-1.08,0.81l0.904,1.623l1.44-0.811L464.345,364.168L464.345,364.168z"/>
<path id="grenada" d="M462.995,367.321l-0.991,0.988l0.361,0.63h1.259l0.358-1.08L462.995,367.321L462.995,367.321z"/>
<path id="trinidad" d="M464.434,370.469l-0.99,0.902l-0.99,0.18v1.259l1.891,1.801l0.811-1.26l0.45-1.441l-0.181-1.169
	L464.434,370.469L464.434,370.469z"/>
<path id="puerto_rico" d="M454.354,349.138l-2.34-0.811l-1.891,1.169l0.99,1.08l3.238,0.45L454.354,349.138L454.354,349.138z"/>
<path id="haiti-dominican_border" d="M436.26,344.008l-1.532,1.529l1.713,0.719l0.267,2.16l-3.778,0.359l0.362,2.07l1.077,0.09
	l0.631-0.99l4.412,0.18l0.808,1.529l0.992-1.17l2.971-0.811l2.607,0.541l0.269-1.62l-4.771-3.15l-3.057-1.169L436.26,344.008
	L436.26,344.008z"/>
<path id="domincan_republic" d="M447.242,348.506l-4.77-3.15l-2.247-0.811l-0.723,5.4l0.809,1.529l0.99-1.168l3.062-0.81l2.609,0.54
	L447.242,348.506L447.242,348.506z"/>
<path id="haiti" d="M436.26,344.008l3.059,0.358l-0.36,3.782l-0.269,1.979l-3.599-0.181l-0.631,0.992l-1.079-0.089l-0.361-2.071
	l3.781-0.36l-0.271-2.16l-1.709-0.719L436.26,344.008L436.26,344.008z"/>
<path id="falklands_west" d="M487.658,553.554l-2.342-0.267l-2.339,1.616l1.71,1.894L487.658,553.554L487.658,553.554z"/>
<path id="falklands_east" d="M489.998,552.382l-0.81,2.521l-2.251,1.981l0.09,0.629l3.78-1.438l1.618-1.98L489.998,552.382
	L489.998,552.382z"/>
<path id="cuba" d="M409.257,336.357v1.169l4.771,0.088l2.249-1.349l0.363,0.991l4.68,1.17l4.14,3.78l-0.99,1.351l0.181,1.529
	l3.512,0.9l3.512-1.623l1.53-1.619l-2.251-1.171l-11.61-6.84l-4.052-0.449L409.257,336.357L409.257,336.357z"/>
<path id="bimini" d="M426.089,329.334l-1.17-0.358l-0.088,2.161l1.439,1.439l0.99-1.439L426.089,329.334L426.089,329.334z"/>
<path id="andros" d="M428.341,332.755l-1.532,0.899l1.44,2.071l0.81-1.08L428.341,332.755L428.341,332.755z"/>
<path id="inagua" d="M433.382,334.375l-1.621-0.089l0.18,1.08l1.261,1.801l1.08-1.169L433.382,334.375L433.382,334.375z"/>
<path id="eleuthera" d="M432.661,332.213l-2.703-1.169l-0.54-2.7l1.079-0.451l1.078,2.071l1.08,0.811v1.438H432.661z"/>
<path id="grand_bahama" d="M430.051,326.725l-1.439-0.358l-0.268-1.711l-1.441-0.542l0.99-0.989l1.711,0.63l1.259,0.811
	L430.051,326.725L430.051,326.725z"/>
<path id="jamaica" d="M425.459,347.786l-3.15,0.811v0.901l1.801,1.08H426l1.26-1.439L425.459,347.786L425.459,347.786z"/>
<path id="irian_jaya" d="M118.089,401.523l-3.78,0.45l-2.429,1.802l0.99,1.978l4.05,0.721v0.72l-2.61,2.071l1.26,4.409l1.259,0.09
	l1.081-4.319h1.98l0.81,4.228l9.721,8.103l0.269,6.301l3.331,3.599l1.53-0.089l0.36-22.232l-5.672-3.962l-5.311,3.602l-1.891,1.169
	l-3.15-1.979l-0.09-6.391L118.089,401.523L118.089,401.523z"/>
<path id="alaska-westcopy" d="M294.224,136.529l-7.563,1.801l1.53,8.551l8.19,2.25l0.45,1.801l-12.152,3.689l-6.93,11.432
	l2.429,12.062l3.961,2.7l3.15-2.881l0.899,1.8l-3.78,4.502l-14.583,6.661l-9.362,2.25l-0.268,3.331l21.511-6.3l8.911-2.429
	l8.192-10.082l9.09-6.031l-4.682,7.832l5.131,0.719l8.641-3.781l1.529,6.299l6.033,1.352l6.209,6.031l0.447,4.502l-0.899,1.08
	l1.079,4.23h1.53l0.267-7.201h1.803l0.451,17.642l4.409-3.78l-3.151-18.363h-4.683l-5.13-6.481l25.113-42.575l-24.842-19.443
	l-27.725,5.4l-1.08,8.551l6.03,3.601l-2.25,5.85L294.224,136.529L294.224,136.529z"/>
<path id="galapagos" d="M385.944,400.534l-0.539,2.521l-0.991,1.08l0.72,1.258l1.801-0.72l0.902-1.53l-0.541-1.619L385.944,400.534
	L385.944,400.534z"/>
<path id="banks" d="M393.775,128.428l0.181,3.6l-7.201,7.47l1.801,6.031l5.221-1.44l2.972-4.412l7.561-2.791l6.209-0.449
	l-4.768-5.22l-2.431,1.8l-1.799-0.63l-0.992-2.25l-2.163-2.25L393.775,128.428L393.775,128.428z"/>
<path id="prince_patrick" d="M403.137,117.716l-1.618,2.791l7.738,2.791l2.793-4.231l1.168,2.791h1.979l3.782-4.23l-4.59-1.17
	l-1.803-1.44l-2.429,2.429L403.137,117.716L403.137,117.716z"/>
<path id="eglinton" d="M416.729,123.387l-6.211,2.609v1.98l8.011,2.971l-1.8,1.98l1.17,2.61l4.952-2.251h4.229l2.068,3.331
	l3.419-3.421l-0.812-3.24l-2.788,0.989l-0.359-4.051l1.439-2.429h-1.439l-2.163,1.44l-0.991,0.811l0.632,2.791l-1.619,1.169
	l-2.431-0.181l-0.628-3.601L416.729,123.387L416.729,123.387z"/>
<path id="mackenzie_king" d="M424.919,117.175l-0.629,1.979l3.78,1.802l2.789-1.621l-0.18-1.17L424.919,117.175L424.919,117.175z"/>
<path id="king_christian" d="M427.891,113.757l-2.792,0.989l0.181,1.44l6.211-0.45l-0.181-1.44L427.891,113.757L427.891,113.757z"/>
<path id="ellef_ringnes" d="M441.302,117.175l-0.358,1.441l-0.992,1.44v1.98l3.781-0.63l3.96,3.421h1.351v-3.421l-3.959-4.411
	L441.302,117.175L441.302,117.175z"/>
<path id="amund_ringnes" d="M451.473,121.137l1.619,1.801l-1.349,2.431l0.988,2.609l4.41-2.43v-1.799l-2.607-3.06L451.473,121.137
	L451.473,121.137z"/>
<path id="axel_heiberg" d="M457.234,116.547l0.18,3.241h5.401l1.35,1.17l-0.182,1.44l-4.769,0.629l3.42,4.592l4.591,0.811
	l6.389-2.791l-9.181-13.862l-2.788,1.802l0.18,2.428l-3.151-1.169L457.234,116.547L457.234,116.547z"/>
<path id="victoria" d="M410.787,139.32l-7.563,1.979l-4.409,3.87l0.363,4.231l8.008,2.431l-1.8,4.05l-5.762-3.601l-1.617,3.06
	l3.78,2.61l-0.183,4.231l5.76,1.621l7.022-0.36l1.169-2.249l5.221,5.851l3.602-1.169l0.626-4.05l2.611,1.8l0.361-4.051l-3.238-1.979
	l0.179-12.692l-2.789-2.249l-2.97,4.05L410.787,139.32L410.787,139.32z"/>
<path id="prince_of_wales" d="M435.091,148.14l-2.61-1.171l-1.441,1.801l2.793,4.411l0.181,4.231l5.939-3.601v-5.222l2.159-2.25
	l-2.159-1.62h-3.602L435.091,148.14L435.091,148.14z"/>
<path id="prescott" d="M447.873,146.339l-4.23,3.421l0.992,4.231h2.608l1.17-2.25l1.802,1.802l1.8-0.181l4.771-4.051
	L447.873,146.339L447.873,146.339z"/>
<path id="cornwallis" d="M447.512,139.68l-0.989,1.979l4.41,1.622l1.17-1.801L447.512,139.68L447.512,139.68z"/>
<path id="bathurst" d="M444.902,132.028l-4.41,0.63l-2.61,2.43l4.769,0.18l-1.35,3.601l0.99,1.621l1.351-0.181l3.419-5.401
	L444.902,132.028L444.902,132.028z"/>
<path id="devon" d="M452.463,130.587l-2.43,0.811l0.36,3.241l3.96,2.61l0.181,1.979l-1.17,1.169l0.631,4.051l15.393,5.041
	l4.23,1.441l4.229-3.601l-4.951-4.05l-4.591,1.169l-6.391-0.63l-2.43-2.43l-0.628-6.571l-3.961-1.979L452.463,130.587
	L452.463,130.587z"/>
<path id="baffin" d="M465.064,151.56l-4.407-0.449l-5.221,1.979l-2.792,3.781l0.811,10.441l8.552,0.359l8.19,4.05l5.759,6.662
	l4.41-0.18l-1.17,6.21l-3.962,6.661l-4.409,1.979l-3.151-0.63l-1.619-1.44l-2.428,3.241l0.99,3.242l3.418,0.18l4.231-1.98l3.6,9.271
	l9,5.851l6.209-7.83l-5.218-8.46l2.972-3.422l4.228,7.021l7.562-6.661l-1.352-2.971l-5.22,1.621l-3.601-9.812l3.421-5.671
	l-6.752-7.199l-3.779,2.609l-3.604-7.831l-7.557,0.991l-2.07-9.45l-6.212,4.229l-0.629,5.221h-3.419l0.36-4.59L465.064,151.56
	L465.064,151.56z"/>
<path id="bylot" d="M474.066,155.161l-1.618,1.622l1.349,2.251l6.57,0.812l-4.227-4.411L474.066,155.161L474.066,155.161z"/>
<path id="ellesmere" d="M467.675,132.479v1.801l-4.411,0.989l1.174,1.98l4.949,1.979l5.579,0.63l3.961,2.79l3.961-2.25l-2.789-2.791
	h3.601l2.161-2.429l5.399-0.811v-1.171l-2.971-1.979l0.36-2.25l8.369,1.441l12.427-4.861l-4.59-1.441l1.168-1.621h9.543l1.618-1.619
	l-19.262-6.752l-4.592-1.619l-4.95,3.602l-5.58-4.592l-2.972-0.181l-0.629,3.872l-3.781-3.42l-4.411,1.44l0.812,2.251l6.57,1.439
	l-0.358,3.241l3.599,2.25l8.821-2.25l0.179,3.059l-7.196,3.42l-4.411-3.42l-3.96,0.45l3.96,5.67l-1.979,0.991l-2.971-2.61
	l-2.16,1.441l1.979,3.78h3.421l-0.811,3.6l-2.79-0.449l-3.602-3.871L467.675,132.479L467.675,132.479z"/>
<path id="southhampton" d="M449.854,187.747l-3.781,4.77l-0.267,5.311l3.33-1.89h4.048l2.883,2.61l2.608-2.161L449.854,187.747
	L449.854,187.747z"/>
<path id="newfoundland" d="M496.208,250.034l-9.54,9.093l0.99,2.16l11.615,4.32l1.71-2.881l-0.99-4.769l-3.782,0.448l-2.158-2.429
	l3.599-3.6L496.208,250.034L496.208,250.034z"/>
<path id="canada" d="M352.82,139.95l1.8,2.701l0.902,3.6l4.501,1.169l3.153-3.42l2.701,1.349l7.651,0.72l5.401-2.25l0.898,7.471
	h3.152v-3.15l3.152,0.27l7.831,9.272l5.13,3.149l-2.701,4.321l1.17,1.169l9.991,1.801l0.269,4.501l2.702,0.45l0.629-6.752
	l4.23-1.169l3.149,4.771l6.749,3.151l3.332,0.72l2.249-2.701l0.271-4.321l4.048-2.521l1.351,3.601l-3.599,6.302l0.449,3.149
	l1.979-3.149l4.052-3.601l0.267-4.77l-2.248-3.601l0.72-2.97l5.401-2.7l2.429,1.798l0.448,15.843l3.78-3.42l2.249,1.35l-3.149,5.399
	l4.048,0.901l5.851-9l4.951,5.22l-1.979,9.272l-4.951,2.701l-4.684-2.251l-8.546,1.801l0.899,2.97l-2.25,3.601l-6.932,1.621
	l-7.829,6.121l-6.932,9.271l-0.902,2.969l4.683,1.802l1.8,4.5l6.481,6.57l10.352,4.501l-2.252,10.352l-0.267,2.971l2.702,1.8
	l3.6-4.771l0.447-9.002l5.58-0.269l2.705-5.22l0.45-7.921l7.196-14.043l9.003,3.15l4.68,6.571l-2.161,6.661l3.601,2.07l8.732-5.851
	l2.429,16.022l8.101,9.722l0.268,4.951l-8.997,2.25l-4.231,4.501l-9-2.07l-4.502-0.27l-7.829,6.122l4.681-1.172l5.853-1.169
	l1.17,1.35l-1.533,4.951l0.271,4.499l2.7,1.8l2.704-0.721l1.349-2.07h1.803l-2.883,5.401l-5.579,0.269l-2.429,3.6h-3.149l-0.906-2.7
	l4.506-4.5l-5.401,1.799l-0.271-7.651l-1.53-0.9l-4.679,2.069l-0.451,3.871h-10.802l-9.179,6.302l-12.332,4.05l-1.352-1.801
	l6.21-9.27l-3.512-3.421l-2.249-4.321l-4.595-3.512l-4.859-0.361l-8.823-6.121l-63.819-10.26l-1.077-4.321l-5.854-5.401v-4.5
	l0.904-4.051l-0.45-2.251l-2.25-2.249l-0.446-3.602l5.85-4.05l-3.602-19.443l-4.95-0.27l-4.5-5.851L352.82,139.95L352.82,139.95z"/>
<path id="usa" d="M344.359,238.603l-0.901,3.6l-3.149-2.07h-1.533l-0.9,3.873l-10.981,24.664l2.882,21.422l3.6,1.8l0.723,5.851h7.38
	l7.197,5.402l14.134,1.349l1.529,7.2l2.249,1.621l3.152-3.152l2.429,1.172l2.248,10.35l3.78,2.522l3.15-5.853l9.634-7.021
	l6.302,2.969l5.4,0.45l0.271-3.421l11.157,0.271l2.253,2.52l0.449,5.67l-1.354,3.151l1.535,5.401h3.328l3.329-5.221l-1.349-2.521
	l-1.351-5.401l1.98-6.121l9.178-7.921l6.932-2.07l-0.901-6.572l9.632-10.441l9.635-1.621l-1.529-5.4l9.449-5.4v-7.201l-0.9-0.45
	l-3.331,1.171l-0.446,4.409l-11.162,0.09l-8.73,5.851l-13.773,4.5l-2.16-2.7l6.211-9.452l-3.06-2.97l-2.068-3.959l-4.319-3.512
	l-4.771-0.36l-8.911-6.121L344.359,238.603L344.359,238.603z"/>
<path id="haida_gwaii" d="M330.857,211.688l-1.529,2.97l0.541,2.07l0.988,0.631l-0.267,0.811l-1.081,0.27l0.27,3.059l1.171,1.169
	l0.899-0.989l-1.172-2.971l0.723-2.429l1.712-2.25l-1.261-2.068L330.857,211.688L330.857,211.688z"/>
<path id="vancouver" d="M335.896,229.24l-1.35,0.541l2.521,2.97l0.629,3.51l2.521,2.701l2.161-0.359v-3.511l-2.61-1.621
	L335.896,229.24L335.896,229.24z"/>
<path id="guatemala" d="M385.855,358.498l5.31,3.87l5.401-6.66l-0.901-1.351l-1.802-0.089v-3.959l-1.352-0.811l-4.14,1.261
	l1.622,3.689L385.855,358.498L385.855,358.498z"/>
<path id="honduras" d="M397.286,356.068l8.28-0.36l2.431,2.971l-1.529-0.361l-2.972,0.09l-3.873,3.6l-1.618,3.69l-1.079-0.54v-4.052
	l-2.43-1.621L397.286,356.068L397.286,356.068z"/>
<path id="el_salvador" d="M391.886,362.819l4.229,2.072l-0.087-3.333l-2.165-1.35L391.886,362.819L391.886,362.819z"/>
<path id="nicaragua" d="M406.378,359.038l1.979,0.36l0.089,4.05l-2.34,6.571l-6.211-0.63l-1.352-3.151l1.802-3.871l3.51-3.24
	L406.378,359.038L406.378,359.038z"/>
<path id="costa_rica" d="M406.107,370.648l1.256,2.432l0.992,1.349l-1.35,4.052l-2.612-1.8l-4.228-3.872v-2.61L406.107,370.648
	L406.107,370.648z"/>
<path id="panama" d="M408.986,374.789l-1.349,4.14l4.321,1.171l2.701,0.542l0.448-3.152l2.883-1.438l2.608,1.35l0.99,1.618
	l1.259-0.181l0.988-2.97l-3.237-1.35l-2.431-1.349l-2.429,1.619l-2.88,1.441l-2.972-1.171L408.986,374.789L408.986,374.789z"/>
<path id="colombia" d="M438.782,365.969l-1.893-0.18l-12.241,10.08l-1.257,3.599l-1.715,0.181l0.725,7.831l-4.324,10.441
	l4.684,3.962l5.94,0.359l4.049,6.03l5.939,0.182l-0.182,4.499h2.252l2.43-8.189l-2.25-2.791l0.539-5.22l4.685-0.361l-0.545-12.15
	l-10.44-3.33l-2.429-6.572L438.782,365.969L438.782,365.969z"/>
<path id="venezuela" d="M435.898,371.46l0.363,2.341l2.973,0.899l0.63-4.32l3.058-3.153l3.061,3.602l7.111,1.892l6.027-1.26
	l4.052,5.041l3.059,1.891l-3.418,5.13l1.167,3.872l-1.891,2.428l-1.979,1.712l-4.321-2.16l-0.99,0.99v3.151l3.15,1.529l-2.34,2.521
	l-2.343,2.52l-3.06-0.27l-3.15-3.419l-0.63-12.873l-10.622-3.6l-1.892-5.67L435.898,371.46L435.898,371.46z"/>
<path id="guyana" d="M466.955,378.84l6.48,5.851l-2.61,2.971l-0.181,1.8l3.421,3.513l-0.09,3.329l-5.941,2.252l-3.511-4.773
	l0.72-5.759l-1.53-4.322L466.955,378.84L466.955,378.84z"/>
<path id="suriname" d="M474.246,385.142l1.801,1.712l2.883-1.802l2.607,0.09l-0.359,0.992l-1.079,2.249l-0.18,5.673l-5.221,2.067
	l0.267-3.599l-3.329-3.151l0.181-1.62L474.246,385.142L474.246,385.142z"/>
<path id="guyane" d="M482.347,385.771l5.312,3.24l-2.787,5.491l-0.991,1.259l-2.974-1.708l0.091-5.854L482.347,385.771
	L482.347,385.771z"/>
<path id="ecuador" d="M417.63,398.373l-4.232,2.608l-0.27,3.963l-0.81,1.258l2.703,2.611l-1.17,1.259l0.265,3.241l4.773,1.17
	l7.29-8.551v-2.97l-3.51-0.269L417.63,398.373L417.63,398.373z"/>
<path id="peru" d="M412.947,410.706l-1.71,1.8l0.089,2.791l15.214,27.814l15.841,10.172l2.431-4.141l0.541-9.002l-1.261-5.671
	l-4.32-7.291l-2.611,0.812l-1.17,1.257l-5.131-5.852l1.258-6.929l5.943-3.872l-0.45-3.6l-6.03-0.271l-3.149-5.309l-1.711-0.543
	l0.088,3.15l-7.83,9.272l-5.852-1.439L412.947,410.706L412.947,410.706z"/>
<path id="bolivia" d="M443.282,431.676l7.382-3.239l2.428,0.269l1.621,6.841l11.253,3.78l1.889,5.761l4.685,0.54l1.978,4.951
	l-1.349,4.503l-7.562,0.54l-2.791,7.199l-5.94-0.089l-1.894-0.361l-3.42,3.332l-1.71-0.181l-5.85-13.502l1.615-2.429l0.632-9.635
	l-1.438-5.671L443.282,431.676L443.282,431.676z"/>
<path id="paraguay" d="M473.074,455.711l1.981,2.16l-0.271,4.59l5.674-0.36l4.321,5.491l-0.359,4.95l-2.792,4.229l-5.674,0.27
	l-0.267-2.34l1.621-3.873l-5.581-3.511h-4.682l-3.514-3.779l2.521-7.293L473.074,455.711L473.074,455.711z"/>
<path id="uruguay" d="M480.816,484.874l-1.799,1.98l0.809,10.623l5.762,1.712l7.382-7.381L480.816,484.874L480.816,484.874z"/>
<path id="argentina" d="M485.407,472.542l1.711,1.622l-6.662,9.9l-2.339,2.608l0.806,11.252l5.134,6.21l-4.324,7.475l-3.237,1.437
	h-3.691l1.079,5.853l-5.852,1.979l1.352,4.95l-3.512,11.162l4.321,3.511l-2.342,5.762l-3.961,6.21l2.07,4.321l-5.129,0.811
	l-4.232-5.132l-0.719-16.112l-6.483-27.275l1.979-9.541l-4.229-12.149l2.793-15.845l2.606-3.059l-0.627-2.34l3.331-2.971l7.38,0.542
	l4.141,4.409l4.771,0.09l4.86,2.968l-1.44,3.332l0.362,3.42l6.84-0.36L485.407,472.542L485.407,472.542z"/>
<path id="tierra_del_fuego_chile" d="M466.955,558.865l-3.872,8.463l6.663,0.72l0.087-5.67L466.955,558.865L466.955,558.865z"/>
<path id="tierra_del_fuego_argentina" d="M470.465,563.095l0.271,5.132l3.96-0.36l3.422-2.249l-5.675-1.172L470.465,563.095
	L470.465,563.095z"/>
<path id="chile" d="M465.694,557.513l-2.88,3.151l-0.36,3.78l-5.581-3.149l-5.939-8.552l-1.712-3.058l2.429-3.15l-0.27-3.961
	l-2.791-1.172l-2.247-1.618l0.449-2.249l2.881-0.812l0.541-12.871l-4.502-2.61l-2.971-67.149l0.812-1.351l5.76,13.412h1.89
	l0.632,2.161l-2.43,2.97l-2.79,16.113l4.051,12.421l-1.893,9.361l6.57,27.542l0.724,16.112l4.68,5.49L465.694,557.513
	L465.694,557.513z"/>
<path id="chiloe" d="M446.523,523.76l-1.17,1.8l0.541,3.061l1.167,0.088l0.54-3.871L446.523,523.76L446.523,523.76z"/>
<path id="brazil" d="M493.239,491.086l5.674-10.8l0.181-9.091l10.53-6.753h5.852l4.59-7.83l0.81-15.03l-1.891-4.052l11.159-10.171
	l0.452-11.251l-15.122-7.382l-18.274-5.671l-8.639-0.812l2.339-4.86l-0.631-7.382l-1.89-0.629l-2.792,5.489l-1.439,1.803
	l-3.781-1.622l-12.602,4.411l-4.231-5.312l0.722-5.489l-3.961,4.049l-4.407-2.342l-0.451,0.631v1.893l3.78,2.069l-5.675,5.939
	h-3.596l-3.602-3.69l-4.052,0.091l-0.54,4.409l2.342,2.881l-2.791,8.911l-3.238,0.27l-5.133,3.24l-1.259,6.39l4.501,4.771
	l0.811-0.901l3.15-0.811l2.703,4.502l7.652-3.329l2.969,0.181l2.072,7.289l10.977,3.513l1.894,5.76l4.682,0.542l2.249,5.489
	l-1.531,4.952l1.979,2.609l-0.268,3.871l5.218-0.448l4.862,6.119l-0.359,4.323l2.881,2.43l-6.84,10.351L493.239,491.086
	L493.239,491.086z"/>
<path id="belize" d="M394.586,350.307l-0.09,3.24h0.724l2.605-4.77h-1.71L394.586,350.307L394.586,350.307z"/>
</svg>
