<svg xmlns="http://www.w3.org/2000/svg" viewBox="0 0 357.5 331.9"><defs><style>.cls-1{fill:#9e8363;}</style></defs><title>資產 1</title><g id="圖層_2" data-name="圖層 2"><g id="svg2"><path id="soqotra" class="cls-1" d="M84.1,296.7l2.1,2.4,2.9-1.7,1-.4-1.3-1.3-2.5.8-2.2.2Z"/><path id="palawan" class="cls-1" d="M273.9,294.6l-.9,1.6-.5,2-4.8,6.1.3,1.3,2-.3,6.2-6.9-2.3-3.8Z"/><path id="negros" class="cls-1" d="M281.6,292.3l-.1,5,1.8,1.8.7,3.6,1.8.4.9-2.2-1.4-1.1-.4-6.3-3.3-1.2Z"/><path id="cebu" class="cls-1" d="M286.8,294.2l-.1,4.4,1,1.7,1.8-2.1-.5-3.9-2.2-.1Z"/><path id="samar" class="cls-1" d="M287.9,290.4l1.8,2.4.9,2.3h1.6l-.3-4-1.8-1.3-2.2.6Z"/><path id="path7462" class="cls-1" d="M291.5,299.4l.4,2.9-3.3,2.7-2.8.3-3,3.2.1,1.5,2.8-.9,1.9-1.3,1.6,4.1,2.9,2,1.2-.4,1-1.3-2.3-2.3,1.3-1.1,1.5,1.3,1-1.7-1-2.1-.2-4.7-3.1-2.2Z"/><path id="luzon" class="cls-1" d="M275.9,270.1l-2.6,1.8-.3,5.8,4,7.8,1.3,1.1,1.7-1.2,3,.5.6,2.6,2.2.2,1-1.4-1.3-1.8-1.6-1.5-3.4-.4-1.8-3,2.1-3.2.2-2.8-1.4-3.6-3.7-.9Z"/><path id="mindoro" class="cls-1" d="M277.2,287.3l.8,2.7,1.3.9,1-1.3-1.5-2.1-1.6-.2Z"/><path id="hainan" class="cls-1" d="M244.3,267.3l-2.4.7-1.7,2.1,1.4,2.8,2.1.2,2.4-2.1.6-2.8-2.4-.9Z"/><path id="taiwan" class="cls-1" d="M272,245.4l-3.5,2.7-.2,5.2,3.1,3.6.8-.7-.2-10.8Z"/><path id="kyushu" class="cls-1" d="M287.7,213.5l-1.6,1.6.7,2.3,1.4.1,1,5,1.2,1.3,2-1.8.9-3.3-2.5-3.6-3.1-1.6Z"/><path id="shikoku" class="cls-1" d="M296.5,210.2l-2.8,2.6-.1,3,.7.9,3.7-3.2-.3-3.2-1.2-.1Z"/><path id="honshu" class="cls-1" d="M292.7,204.1l-4.9,5.6.9,1.4,2.4.3,4.5-3.5,3.2-.6,2.9,3.4,2.2-.8.9-3.3,4.1-.1,4-4.8-2.1-8-1-4.2,2.1-1.7-4.8-7.2-1.2.1-2.6,2.9V186l1.2,1.4.4,6.4-3,3.7-1.7-1.1-1.3,3-.3,2.8,1,1.6-.7,1.3-2.2-1.8h-1.5l-1.3.8Z"/><path id="hokkaido" class="cls-1" d="M300.9,160.5l-1.5,1.4.8,2.9,1.3,1.4-.1,4.4-1.7.7-1.3,3,3.9,5.4,2.6-.9.5-1.4-2.8-2.5,1.7-2.2,1.8.3,1.4,1.5.1-3.2,3.9-3.2,2.2-.6-1.8-3.1L311,163l-1.4,1-1.2,1.5-2.7-.6-2.8-1.8-2-2.6Z"/><path id="iturup" class="cls-1" d="M315.4,157.5l-2.7,3.8.2,1.8,1.3-.6,3.2-3.9-2-1.1Z"/><path id="urup" class="cls-1" d="M318.9,152.1l-1,2.6.1,1.7,1.6-1.1,1.5-3.1v-1.1l-2.2,1Z"/><path id="paramushir" class="cls-1" d="M324.5,129.1l-1.2,1.5.1,2.4,1.2-.1,1.9-3.4-2-.4Z"/><path id="onekotan" class="cls-1" d="M322.3,135v4.2l1.3.5,1-1.5v-3.3l-2.3.1Z"/><path id="sakhalin" class="cls-1" d="M283.1,119.7l-.1,6.2,7.7,11.9,2.8,10.4,4.9,9.3,1.9.7,1.6-1.4.8-2.2-7-7.6.2-3.9,1.5-.7.4-2.3-13.7-19.4-1-1Z"/><path id="male" class="cls-1" d="M140.9,317.9l.3,2.6,1.7.6.3-2.3-2.3-.9Z"/><path id="maldive" class="cls-1" d="M143,323.4l-.2,3.2,1.2.6,1.1-2.1-2.1-1.7Z"/><path id="gan" class="cls-1" d="M143.3,329.7l-1.1,1.1,1.2,1.1,1.5-1.1-1.6-1.1Z"/><path id="prince_george" data-name="prince george" class="cls-1" d="M32.3,35.9l1.7.7-1.2,2.1v3l-2.6,1.6H27.5L26,41.4l.2-2.1,1.2-1.6h2.4l2.5-1.8Z"/><path id="salisbury" class="cls-1" d="M38.9,34v2.1l1.7,1.4,2.4-.2,2.1-1.9V34H43.2l-1.5.5-1.2-1.4-1.6.9Z"/><path id="wilczek" class="cls-1" d="M48.7,34.2l1.2,2.6,2.4.2,1.7-.7-.9-2.4-2.2-.5-2.2.8Z"/><path id="bell" class="cls-1" d="M58.5,30.7l-1.9-.3-1.7,1.7.9,1.6.5,2.4,2.2-1.7.5-1.9-.5-1.8Z"/><path id="novaya_zemlya_north" data-name="novaya zemlya north" class="cls-1" d="M69,49.1l-.5,2.4-4,3.5-8.4,1.9L49.2,68.3,48,71.6l6.9,1.7,1-4.2L58,62.7l5.3-2.8,4.5-3.5L71.1,55h1.7V50.3L69,49.1Z"/><path id="novaya_zemlya_south" data-name="novaya zemlya south" class="cls-1" d="M46.8,74.4l4.7.5L53,80.3l4,4.2-1.4,2.8H53.2L51,84.7l-5-.2-2.1-2.8V79.8l3.1-.9-.2-4.5Z"/><path id="komsomolets" class="cls-1" d="M119.5,15.2l-2.2-1.4h-2.6l-.5,1.6L111.4,17l-2.1.7-.3,2.1,4.8.4,5.7-5Z"/><path id="october" class="cls-1" d="M124.8,15.8l-1.2,2.6-2.4-.2L117.4,21l-1,3.5h2.4l1.4-2.3,3.3,2.4,3.1-1.4,2.2-1.9-.9-3-1.2-2.1-1.9-.4Z"/><path id="bolshevik" class="cls-1" d="M129.8,17.7l1.2,4.9,1.9,4.5,2.1-3.6,4-.9V20l-2.6-1.9-6.6-.4Z"/><path id="kotelny" class="cls-1" d="M224.3,9.9l2.7,2.3,1.9-.8.6-3.2-4-2.7-2.6,1.7-6.3.6v2.8l-6.6.1v4.6l7.7,5.8,2-1.5-.5-4.1,4.9-1.2-1-1.9-1.8-1.8,3-.7Z"/><path id="novaya_sibir" data-name="novaya sibir" class="cls-1" d="M231.4,7.2l1.8,3.4,7-.8,1.9-2.5-.5-2.2-1.9-.8-1.8,1.4-5.2,1.1-1.3.4Z"/><path id="lyakhovsky" class="cls-1" d="M231,20.4l-3.5-.9-2,2.1-.9,2.9,4.7-.5,3.6-1.8L231,20.4Z"/><path id="wrangel" class="cls-1" d="M321.2.9,318.3,0l-3.4,1.2-1.7,2.5,2.1,2.8L320.9,4,322,2.8,321.2.9Z"/><path id="sri_lanka" data-name="sri lanka" class="cls-1" d="M165,305.1l.3,2.7.3,2-1.5.3.7,4.5,2.2,1.2,3.4-2-1-4.7.3-1.7-3.2-3-1.5.7Z"/><path id="russia" class="cls-1" d="M302.5,70l1.8,6.1,3.5,1,3.5-5.6-2-3.8.8-3.3h5.3l-1.3,2.5.4,9.2L307,94.8l.8,4.1-.3,6.8,14.1,20.5,2.8.8.3-16.7,2.8-2.5-3-6.6,2.5-2.8-5.5-7.3-3,.3-1-12.2,7.8-2,.5-3.6,4-1,2.3,2,2.8-11.1,4.8-8.1,3.8-2,3.3.3V49.9l-5.3-1-7.3-6.1,3.5-4-3-6.8,2.5-2.5,3,4,7.5,2.8,8.3.8,1-3.5-4.3-4.3,4.8-6.6-10.8-3.8-2.8,5.6-3.5-4.6-19.8-6.8-19.2,3-2.8,1.5v1.5l4,2-.5,4.8-7.3-3-16.1,6.3-2.8-5.8H264.8l-5,5.3-17.8-4L225.7,28l-2,5.1,2.5.8-.3,3.8-15.8,1.8,1,5.1-14.6-2.5,3.5-6.6-14.8-.8,1.3,6.8-4.8,2.3-4-3.8-16.2,2.7-6.3,5.8-.3,3.5-4,.3-.5-4,12.8-11.2V29.5l-8.3-2.3-10.8,3.5-4.5-4.6h-2l-2.5,5.1,2,2.3-14.3,7.8-12.3,9.5L103,61.2v4.3l8,3.3-4,3-8.5-3-3.5,3-5.3-6.1-1,2.3,5.8,18.2,1.5.5,4-2,2,1.5v3.3L98.2,88l-2.3,1.8,1.5,3.3-1.3,8.6-7.8.8-.5-2.8,4.5-2.8,1-7.6-5-6.6L86.5,71.3l-8-1.3-.8,4.1,1.5,2-3.3,2.8,1.3,7.6,4.8,2,1,5.6-4.8-3L65.9,88.8l-1.5,4.1-9.8,3.5-1.5-2.5L40.3,101l-.3,4.8-5,.8,1.5-3.5V99.6l-5-1.8-3.3,1.3,2.8,5.3,2,3.5v2.8l-3.8-.8-.8-.8-3.8,4.1,2,3.5-8.5-.3,2.8,3.6-.8,1.5H15.6l-3.3-2.3-.8-6.3-5.3-2v-2.5l11.1,2.3,6,.5,2.5-3.8-2.3-4.1L7.4,97,1.9,98.4,0,100l.6,3.8,2.4.4-.5,5.9,7.3,17.1-5.3,8.3-.4,1.9,2.7,1.9-2.4,1.6H2.8l.3,7.4,2.2,3.1v3l2.8.3,4.3,1.6,4.6,6.3v1.7l-1.5,2.6,3.4-.2,3.3,1,4.5,6.4,11.1,1-.5,7.6L33.5,186l.8,1.3-3.8,4.1-1,3.8,2.3,3.3,7.3,2.5,3-1.8,19.3,7.3.8-2-4-3.8v-4.8l-2.5-.8.5-4.1,4-4.8L53,180.8l.5-7.5,7.7-5.1,9,.5,1.5,2.8,9.3.5,6.8-3.8-3.5-3.8.8-7.1,17.6-8.6,13.5,6.1,4.5-4.1L134,163.4l10-1,3.5,3.5,9.5,1,6.3-8.6,8,3.6,4.3.8,4.3-3.8-3.4-2.8,3.3-5.1,9.3,3,2,4.1,4,.3,2.5-1.8,6.8-.3.8,1.8,7.8.5,5.3-5.6,10.8,1.3,3.3-1.3,1-6.1-3.3-7.3,3.3-2.8h10.3l9.8,11.6,12.6,7.1h3.8l.5-3,4.5-2.8.5,16.5-4,.3v4.1l2.3,2.8-.4,3.6,1.7.7,1-2.5,1.5.5,1,1,4.5-1,4.5-13.2L288,146l-5.8-13.2-7.3-8.9-3.5.5v2.8l-8.5-3.3,3.3-7.1L269,98.1l11.6-3.5,5.5-3.5h6l-1.5,2,1.5,2.5,5.3-5.6,3,.3-.5-3.3-4.8-1,3.3-11.9,4.1-4.1Z"/><path id="china" class="cls-1" d="M154.9,167.2l-3.5,8.7-4.8-.3-5,11,4.3,5.4-8.8,12.1-4.5-.8-3,3.8.8,2.3,3.5.3,1.8,4.1,3.5.8L150,228.5v7.1l5.3,3.3,5.8-1,7.3,4.3,8.8,2.5,4.3-.5,4.8-.5,10-6.6,3.3.5,1.3,3,2.8.8,3.8,5.6-2.5,5.6,1.5,3.8,4.3,1.5.8,4.6,5,.5.8-2.3,7.3-3.8,4.5.3,5.3,5.8,3.5-1.5,2.3.3,1,2.8,1.8.3,2.5-3.5,10-3.8,9-10.9,3-10.4-.3-6.8-3.8-.8,2.3-2.5-.5-4.1-9.5-9.6v-4.8l2.8-3.5,2.8-1.3.3-2.8h-7l-1.3,3.8-3.3-.8-4-4.3,2.5-6.6,3.5-3.8,3.3.3-.5,5.8,1.8,1.5,4.3-4.3,1.5-.3-.5-3.3,4-4.8,3,.3,1.8-5.6,2.1-1.1.2-3.5-2-2.1-.2-5.5,3.8-.3-.3-14.1-2.7,1.6-1,3.6h-4.5l-13.1-7.4-9.4-11.4-9.6-.1-2.4,2.1,3.1,7.1-1.1,6.7-3.9,1.6-2.2-.2-.2,6.6,2.3.5,4-1.8,5.3,2.5v2.5l-3.8.3-3,6.6-2.8.3-9.8,12.9L209.3,190l-7,.5-4.8-3.3-6.8,3.6-7.3-2.3-1.8-4.8-12.3-.8-6.5-10.6H160l-2.2-4.9Z"/><path id="mongolia" class="cls-1" d="M158.3,167.3l5.8-7.7,7,3.2,4.8,1.3,5.8-5.3-4-2.9,2.6-3.7,7.8,2.7,2.7,4.4,4.9.1,2.5-1.9,5.2-.2,1.1,1.9,8.7.4,5.5-5.6,7.6.8-.4,7.6,3.3.8,4.1-1.9,4.3,2.1-.1,1.1-3.1.1-3.3,6.9-2.5.3-9.9,12.9-10.1,4.4-6.3.5-5.2-3.4-6.7,3.6-6.6-2.1-1.9-4.8-12.5-.9L163,171.1l-3.1-.2-1.6-3.6Z"/><path id="north_korea" data-name="north korea" class="cls-1" d="M262.8,191.4l1.8.8.6,6.4,3.7.2,3.4-4-1.2-1.1.1-4.3,3.2-3.8-1.6-2.9,1-1.2.6-3-1.8-.8-1.6.8-1.9,5.9-3.1-.3-3.6,4.3.4,3Z"/><path id="south_korea" data-name="south korea" class="cls-1" d="M272.8,195.3l6.2,5,1,4.9-.2,2.6-3,3.4-2.6.1-3-6.4-1.1-3,1.2-.9-.3-1.3-1.5-.7,3.3-3.7Z"/><path id="kazakhstan" class="cls-1" d="M61.2,185.7l4.1-1.8,4.6-.2.3,7H67.5l-2,3.3,2.7,4.4,4,2.2.4,2.6,1.5-.5,1.3-1.6,2.2.5,1.1,2.2h2.8v-2.9l-1.7-5.1-.8-4.1,5-2.2,6.8,1.1,4.3,4.3,9.6-.9,5.4,7.6,6.3.3,1.7-2.9,2.2-.5.3-3.2,3.3-.2,1.7,2.1,1.7-4.1,15,2.1,2.5-3.3-4.3-5.3,5.7-12.4,4.6.3,3.2-7.6-6.3-.6-3.6-3.5-10,1.2-12.9-12.4-4.5,4-13.8-6.3L86,157.6l-.5,5.9,4,4.6-7.7,4.4-10-.2-2.1-3.1-7.8-.4-7.4,4.8-.2,6.5,6.9,5.6Z"/><path id="turkmenistan" class="cls-1" d="M78.3,204.7l-.6,2.6H73.5v3.6l4.5,2.9-1.4,4v1.9l1.8.3,2.5-3.3,5.5-1.2L98.2,220l.2,3.3,6.6.6,7.4-7.8-.9-2.5-4.9-1.1-13.8-9-.6-3.3H87l-2.3,4.3H82.4l-4.1.2Z"/><path id="uzbekistan" class="cls-1" d="M113.4,216.2l3.1.2v-5.3l-2.9-1.7,4.9-6.2h2l2,2.3,5.2-2-7.2-2.5-.3-1.5-1.7.4-1.7,2.9-7.3-.2-5.3-7.6-9.4.9-4.5-4.4-6.2-1.1-4.5,1.8,2.6,8.7v2.9h1.9l2.3-4.4,6.2.1.9,3.4,13.3,8.8,5.1,1.2,1.5,3.3Z"/><path id="tajikistan" class="cls-1" d="M114.7,208.9l4.1-5.1h1.5l.5,1.1-1.9,1.4v1.1l1.3.9,6,.4,2-.8.9.2.6,1.9,3.6.4,1.8,3.8-.5,1.1-.7.1-.7-1.4-1.5-.1-2.7.4-.2,2.5-2.7-.2.1-3.2-2-1.9-3,2.5.1,1.6-2.6.9h-1.5l.1-5.6-2.6-2Z"/><path id="kirgizstan" class="cls-1" d="M121.3,196.3l-.3,2.5.3,1.6,8.7,2.9-7.6,3.1-.9-.7-1.7,1.1.1.6.9.4,5.4.1,2.7-.8,3.5-4.4,4.4.8,5.3-7.3L128,194.3l-2,4.7-2.5-2.6-2.2-.1Z"/><path id="afghanistan" class="cls-1" d="M98.6,224.1l1.6,12.5,4,.9.4,2.2-2.8,2.4,5.3,4.3,10.3-3.7.8-4.4,6.5-4,2.5-9.4,1.8-2-1.9-3.3,6.3-3.9-.8-1.1-2.9.2-.3,2.7h-3.9l-.1-3.6-1.3-1.5-2.1,1.9.1,1.8-3.2,1.2-5.8-.4-7.6,8-6.9-.8Z"/><path id="pakistan" class="cls-1" d="M107.6,246.9l2.6,3.9-.3,2-3.5,1.4-.3,3.2h4l1.4-1.1H119l6.8,6,.9-2.9h5.1l.1-3.6-5.2-5,1.1-2.7,5.3-.4,7.2-14.9-4-3.1-1.5-5.2,9.6-.9-5.7-8.1-3-.8-1.2,1.5-.9.1-5.7,3.6,1.9,3.1-2.1,2.2-2.6,9.6-6.4,4.1-.9,4.5-10.2,3.5Z"/><path id="india" class="cls-1" d="M155.5,310.1l4.6-2.2,2.7-9.8-.1-12.1,15.6-16.8v-4l3.2-1.3-.1-4.6-3.5-6.7,2-3.6,4.3,4,5.6.3v2.2l-1.7,1.9.4,1,3,.1.6,3.4h.9l2.2-4,1.1-10.5,3.7-2.6.1-3.6-1.5-2.9-2.3-.1-9.2,6.1.6,3.9h-6.5l-2.3-2.8-1.2.2.4,3.9-14-1-8.7-3.9-.5-4.8-5.8-3.6-.1-7.4-4-4.5-9.1.9,1,4,4.5,3.6-7.7,15.8-5.2.4-.8,1.9,5.1,4.7-.3,4.8-5.2-.1-.6,2.4,4.3-.2.1,1.9L128,266l2,3.7,3.8,1.3,2.3-1.7,1.1-3.1,1.4-.6,1.6,1.6-.5,4-1.1,1.9.3,3.2,16.6,33.8Z"/><path id="nepal" class="cls-1" d="M155.7,239.7l.5,4.3,8.1,3.7,13,1-.5-3.1-8.7-2.4-7.3-4.4-5.1.9Z"/><path id="bhutan" class="cls-1" d="M179.9,245.2l1.5,2.1h5.2l-.5-2.9-6.2.8Z"/><path id="bangladesh" class="cls-1" d="M180.1,250.2l-1.3,2.4,3.4,6.5.1,5,.6,1.4,4,.1,2.3-2.2,1.6,1,.3,3.1,1.3-.8.1-3.9-1.1-.1-.7-3.3-2.8-.1-.7-1.9,1.7-2.3V254H184l-3.9-3.8Z"/><path id="burma" class="cls-1" d="M213.9,300.7l-2.8-4.4,2-2.8-1.9-3.5-1.8-.3-.3-5.9-2.7-5.2-.8,1.2-1.8,3-2.2.3-1.1-1.5-.6-4-1.7-3.2-6.8-6.5,1.7-1.1.3-4.7,2.5-4.2,1.1-10.4,3.6-2.5.1-3.8,2.2.7,3.4,4.9-2.5,5.4,1.7,4.3,4.2,1.7.8,4.6,5.7.9-1.6,2.7-7.2,2.8-.8,4.6,5.3,6.8.2,3.6-1.2,1.2.1,1.1,3.9,5.8.1,6-1.1,2.4Z"/><path id="thailand" class="cls-1" d="M214.5,267.6l3.2,4.2v5.1l1.1.6L224,275l1,.3,6.2,7.1-.2,4.9-2-.3-1.8-1.1-1.3.1-2.3,3.9.5,2.1,1.9,1-.1,2.4-1.3.7-4.6-3.2v-2.8l-1.9-.1-.8,1.2-.4,12.6,3,5.4,5.3,5.1-.2,1.5-2.8-.1-2.6-3.8h-2.7l-3.4-2.7-1-2.8L214,304l.5-2.1,1.6-2.8-.1-6.4-3.9-5.6-.2-.7,1.3-1.3-.3-4.4-5.1-6.5.6-3.8,6.1-2.8Z"/><path id="malaysia" class="cls-1" d="M217.2,312.5l2,4.5.5,5.9,2.7,4.2,6.5,3.9,2.5.2-.5-4.1-2.1-5.2-3.1-6.6-.3,1.2-3.8-.2-2.7-3.9-1.7.1Z"/><path id="cambodia" class="cls-1" d="M225,296.6l4.1,4.4,7.6-5.6.7-8.9-3.9,2.7-2-1.1-2.8-.4-1.5-1.1h-.8l-2,3.3.3,1.5,2.1,1.1-.3,3.1-1.5,1Z"/><path id="laos" class="cls-1" d="M220,260l-2.4,1.2-2,5.9,3.4,4.3-.6,4.7.6.2,5.6-2.7,7.5,8.4-.2,5.3,1.6.9,4-3.3-.3-2.6-11.6-11,.1-1.7,1.5-1-1-2.8-4.8-.8-1.4-5Z"/><path id="vietnam" class="cls-1" d="M229.6,301.5l1.2,1.9.2,2.1,3.1.3,3.8-5.1,3.6-1,1.9-5.2-.9-8.3-3.7-5.1-3.9-3.1-5-8.5,3.5-5.9-5.1-5.8-4.1-.2-3.7,2,1.1,4.7,4.9.9,1.3,3.6-1.7,1.1.1.9L237.7,282l.5,3.3-.7,10.4-7.9,5.8Z"/><path id="georgia" class="cls-1" d="M40,201.3l3.3,4.3,4.1,1.9h2.5l4.3-1.2,1.1-1.7-12.8-4.8L40,201.3Z"/><path id="armenia" class="cls-1" d="M54.2,207l4.8,6.3-1.4,1.6-3.4-.6L50,210.5l.2-2.5,4-1Z"/><path id="azerbaijan" class="cls-1" d="M55.9,204.8l-1,1.7,4.7,6.2,1.6-.5,2.7,2.8,1.2-5,2.9.5-.1-1.4-4.8-4.2-.9,2.5-6.3-2.6Z"/><path id="iran" class="cls-1" d="M54.2,215,53,216.3l.1,2,1.5,2.1,5.4,5.9-.8,2.4h-.9l-.5,2.4,3,3.9,2.8.2,5.6,7.8,3.2.2,2.5,1.8.1,3.5,9.7,5.7h3.6l2.2-1.9,2.8-.1,1.6,3.8,10.5,1.5.3-3.9,3.5-1.3.2-1.4-2.8-3.8-6.2-5,3.2-2.9-.2-1.3-4.1-.6-1.7-13.7-.2-3.1-11-4.2-4.9,1.1-2.7,3.4-2.4-.2-.7.6-5.4-.4-6.8-5L61,213l-1.2.3-2.1,2.4-3.5-.7Z"/><path id="yemen" class="cls-1" d="M56.5,286.3l1.4,4.3v4.2l3.5,3.1L85.8,288l.2-2.7-3.9-7-9.8,3.1-5.6,5.5L60.2,283l-3.7,3.3Z"/><path id="oman" class="cls-1" d="M82.9,277.9l7.4-4.3,1.3-6.3-1.6-.9.7-6.7,1.4-.8,1.5,2.4,9,4.7v2.6l-10.9,16-5,.2-3.8-6.9Z"/><path id="emirates" class="cls-1" d="M78.5,262l.9,3.5,9.9.9.7-7.1,1.9-1,.5-2.6-3.1.9-3.5,5.2-7.3.2Z"/><path id="qatar" class="cls-1" d="M77.1,256.1l-.5,4,1.5,1.2,1.4-.1.5-5-1.2-.9-1.7.8Z"/><path id="kuwait" class="cls-1" d="M67.8,244.3l-2.3-1.2-1.6,1.6.2,3.1,3.6,1.4.1-4.9Z"/><path id="saudi" class="cls-1" d="M68.5,250.3l7,9.8,2.3,1.8,1,4.4,10.8.9,1.2.6-1.2,5.4-7.1,4.2-10.4,3.1-5.5,5.4L60,282.1l-4,3.5-5.5-9.1-3.8-1.7-1.4-2.1v-4.6L31.5,251.4l-.5-3h4l4.8-4.2.2-2.1-1.4-1.4,2.8-2.3,5.9.4,10,8.4,5.9-.3.4,1.5,4.9,1.9Z"/><path id="syria" class="cls-1" d="M31.2,226.2l-.3,2.5,2.8,1.2-.1,7,2.8-.1,2.8-2.1,1.1-.2,6.4-5.1L48,222l-12.8,1.3-1.3,3-2.7-.1Z"/><path id="iraq" class="cls-1" d="M48.8,222.1l-1.6,7.7-6.5,5.4.4,2.5,6.3.4,10,8.2,5.6-.2.2-1.9,2.1-2.2,2.9,1.6.4-.4L63,235.8l-2.6-.2-3.5-4.5.7-3.3,1.1-.1.4-1.5-4.8-5-5.5.9Z"/><path id="jordan" class="cls-1" d="M33.4,237.9l-2.5,8.6-.1,1.3h3.9L39,244l.1-1.4-1.8-1.8,3.2-2.6-.5-2.4-.9.2-2.6,1.9Z"/><path id="lebanon" class="cls-1" d="M30.7,229.5l.1,1.9-.8,3,2.8.2.2-4.2-2.3-.9Z"/><path id="israel" class="cls-1" d="M29.8,235.2l-1.6,5,2,6,2.3-8.8v-1.9l-2.7-.3Z"/><path id="cyprus" class="cls-1" d="M27.7,226.9l1.2.9-3.8,3.6-1.8-.1-1.3-.9.2-1.8,2.8-.2,2.7-1.5Z"/></g></g></svg>