<?xml version="1.0" encoding="utf-8"?>
<!-- Generator: Adobe Illustrator 16.0.0, SVG Export Plug-In . SVG Version: 6.00 Build 0)  -->
<!DOCTYPE svg PUBLIC "-//W3C//DTD SVG 1.1//EN" "http://www.w3.org/Graphics/SVG/1.1/DTD/svg11.dtd">
<svg version="1.1" id="svg" xmlns="http://www.w3.org/2000/svg" xmlns:xlink="http://www.w3.org/1999/xlink" x="0px" y="0px" viewBox="7 97 598 598" enable-background="new 7 97 598 598" xml:space="preserve">
<title>Asia</title>
<style>
	path{
		transition: 0.8s;
	}
	path:hover{
		stroke: red;
		fill: blue;
		transform: translate(-3px, -3px);
	}
</style>
<path id="soqotra" d="M152.559,565.952l3.431,3.921l4.736-2.775l1.635-0.655l-2.125-2.123l-4.084,1.31L152.559,565.952z"/>
<path id="philippines" d="M462.599,562.522l-1.468,2.612l-0.815,3.271l-7.84,9.961l0.488,2.125l3.267-0.489l10.127-11.272
	L462.599,562.522L462.599,562.522z M475.177,558.766l-0.162,8.17l2.939,2.939l1.143,5.881l2.941,0.651l1.47-3.592l-2.286-1.8
	l-0.653-10.289L475.177,558.766L475.177,558.766z M483.672,561.87l-0.164,7.188l1.634,2.777l2.939-3.431l-0.815-6.373
	L483.672,561.87L483.672,561.87z M485.468,555.663l2.939,3.921l1.471,3.758h2.613l-0.489-6.533l-2.94-2.125L485.468,555.663z
	 M491.351,570.364l0.655,4.737l-5.395,4.412l-4.573,0.49l-4.9,5.228l0.161,2.45l4.575-1.471l3.104-2.123l2.615,6.698l4.735,3.267
	l1.961-0.653l1.632-2.123l-3.758-3.759l2.125-1.795l2.448,2.121l1.635-2.776l-1.635-3.429l-0.324-7.68L491.351,570.364z
	 M465.865,522.502l-4.247,2.942l-0.489,9.473l6.535,12.742l2.122,1.795l2.776-1.959l4.9,0.817l0.979,4.246l3.595,0.326l1.634-2.283
	l-2.124-2.942l-2.613-2.447l-5.555-0.653l-2.938-4.903l3.43-5.226l0.326-4.576l-2.285-5.879L465.865,522.502L465.865,522.502z
	 M467.99,550.6l1.306,4.408l2.123,1.473l1.633-2.124l-2.447-3.431L467.99,550.6L467.99,550.6z"/>
<path id="taiwan" d="M459.496,482.156l-5.719,4.41l-0.325,8.494l5.063,5.881l1.307-1.144L459.496,482.156L459.496,482.156z"/>
<path id="japan" d="M485.142,430.046l-2.612,2.612l1.143,3.759l2.285,0.162l1.634,8.168l1.959,2.125l3.266-2.94l1.472-5.394
	l-4.084-5.88L485.142,430.046z M499.518,424.654l-4.576,4.248l-0.161,4.899l1.141,1.472l6.046-5.228l-0.492-5.229L499.518,424.654z
	 M493.309,414.691l-8.005,9.147l1.471,2.287l3.922,0.487l7.35-5.717l5.227-0.978l4.737,5.553l3.597-1.307l1.468-5.39l6.698-0.164
	l6.535-7.84l-3.431-13.07l-1.634-6.858l3.429-2.777l-7.84-11.761l-1.959,0.162l-4.246,4.739v3.919l1.959,2.287l0.653,10.453
	l-4.899,6.045l-2.777-1.797l-2.125,4.901l-0.489,4.576l1.634,2.61l-1.145,2.125l-3.594-2.94h-2.448l-2.121,1.308h-1.966V414.691z
	 M506.705,343.469l-2.451,2.285l1.309,4.737l2.121,2.285l-0.162,7.189l-2.777,1.143l-2.122,4.901l6.37,8.82l4.247-1.469l0.817-2.286
	l-4.576-4.084l2.777-3.594l2.94,0.489l2.285,2.451l0.164-5.227l6.371-5.229l3.593-0.979l-2.941-5.063l-1.467-2.289l-2.285,1.634
	l-1.959,2.451l-4.412-0.979l-4.574-2.942L506.705,343.469L506.705,343.469z M530.392,338.57l-4.411,6.206l0.326,2.94l2.123-0.979
	l5.229-6.371L530.392,338.57z M536.107,329.749l-1.634,4.247l0.163,2.778l2.614-1.799l2.449-5.063v-1.797L536.107,329.749z"/>
<path id="sri_lanka" d="M284.709,579.676l0.49,4.412l0.492,3.265l-2.451,0.491l1.144,7.349l3.593,1.963l5.554-3.271l-1.633-7.676
	l0.49-2.775l-5.227-4.901L284.709,579.676z"/>
<path id="russia_1_" d="M127.893,161.496l-0.817,3.921l-6.534,5.717l-13.721,3.104l-11.27,18.622l-1.96,5.389l11.271,2.777
	l1.634-6.86l3.431-10.455l8.658-4.574l7.352-5.717l5.391-2.286h2.776v-7.678L127.893,161.496z M91.629,202.824l7.677,0.817
	l2.45,8.821l6.534,6.861l-2.286,4.574h-3.921l-3.593-4.246l-8.167-0.328l-3.43-4.575v-3.102l5.064-1.47L91.629,202.824z
	 M210.385,106.12l-3.593-2.285h-4.248l-0.816,2.613l-4.574,2.614l-3.43,1.143l-0.491,3.43l7.84,0.654L210.385,106.12z
	 M219.043,107.101l-1.96,4.247l-3.921-0.329l-6.207,4.573l-1.634,5.718h3.92l2.287-3.758l5.391,3.921l5.064-2.287l3.593-3.103
	l-1.47-4.901l-1.961-3.43L219.043,107.101z M227.209,110.205l1.959,8.004l3.104,7.352l3.431-5.881l6.535-1.471v-4.249l-4.247-3.102
	L227.209,110.205L227.209,110.205z M477.627,276.822l-0.164,10.128l12.579,19.439l4.575,16.988l8.004,15.192l3.105,1.142
	l2.613-2.286l1.306-3.593l-11.436-12.415l0.327-6.37l2.448-1.145l0.654-3.758l-22.379-31.688L477.627,276.822L477.627,276.822z
	 M509.316,195.635l2.94,9.966l5.719,1.634l5.717-9.149l-3.267-6.207l1.307-5.39h8.657l-2.124,4.083l0.653,15.03l-12.252,30.546
	l1.307,6.697l-0.49,11.107l23.034,33.486l4.575,1.307l0.487-27.279l4.575-4.083l-4.901-10.781l4.085-4.574l-8.984-11.925
	l-4.902,0.49l-1.633-19.929l12.74-3.268l0.818-5.881l6.534-1.634l3.757,3.269l4.577-18.132l7.838-13.232l6.208-3.267l5.392,0.49
	v-6.207l-8.658-1.634l-11.923-9.963l5.717-6.536l-4.9-11.107l4.083-4.083l4.9,6.533l12.254,4.574l13.557,1.308l1.633-5.717
	l-7.022-7.024l7.841-10.784l-17.644-6.207l-4.573,9.148l-5.718-7.513l-32.345-11.108l-31.361,4.9l-4.575,2.45v2.451l6.535,3.267
	l-0.816,7.84l-11.925-4.9l-26.299,10.29l-4.576-9.475h-18.13l-8.169,8.658l-29.076-6.536l-26.625,5.392l-3.269,8.331l4.085,1.308
	l-0.49,6.208l-25.811,2.941l1.636,8.33l-23.851-4.084l5.715-10.78l-24.174-1.307l2.123,11.108l-7.84,3.758l-6.535-6.209
	l-26.463,4.411l-10.291,9.475l-0.492,5.717l-6.534,0.49l-0.817-6.534l20.909-18.295v-12.415l-13.558-3.758l-17.642,5.717
	l-7.351-7.514h-3.267l-4.084,8.332l3.267,3.757l-23.359,12.742l-20.092,15.518l-12.252,16.991v7.022l13.068,5.391l-6.535,4.901
	l-13.884-4.901l-5.718,4.901l-8.658-9.965l-1.635,3.757l9.475,29.731l2.45,0.817l6.534-3.267l3.267,2.45v5.39l-6.207-2.449
	l-3.758,2.939l2.45,5.391l-2.124,14.047l-12.742,1.307l-0.816-4.573l7.352-4.573l1.633-12.415l-8.169-10.78l-2.94-18.624
	l-13.068-2.123l-1.308,6.698l2.45,3.266l-5.391,4.576l2.125,12.415l7.84,3.267l1.633,9.148l-7.84-4.901l-20.092-3.758l-2.45,6.697
	l-16.009,5.717l-2.45-4.084L81.007,246.28l-0.49,7.84l-8.168,1.308l2.45-5.717v-5.718l-8.168-2.939l-5.389,2.124l4.574,8.657
	l3.268,5.717v4.573l-6.208-1.307l-1.307-1.307l-6.208,6.697l3.268,5.717l-13.884-0.491l4.573,5.881l-1.306,2.45H40.66l-5.392-3.758
	l-1.308-10.292l-8.658-3.267v-4.084l18.133,3.755l9.801,0.818l4.083-6.207l-3.756-6.699l-26.301-10.291l-8.987,2.286l-3.098,2.613
	l0.98,6.207l3.92,0.654l-0.817,9.638l11.925,27.934l-8.658,13.556l-0.651,3.105l4.411,3.104l-3.92,2.614h-2.613l0.49,12.088
	l3.594,5.064v4.901l4.574,0.49l7.024,2.614l7.514,10.29v2.777l-2.45,4.249l5.553-0.329l5.391,1.633l7.351,10.455l18.131,1.635
	l-0.816,12.413l-6.208,5.394l1.308,2.121L65,393.945l-1.633,6.209l3.758,5.388l11.925,4.086l4.9-2.94l31.527,11.926l1.307-3.269
	l-6.533-6.205v-7.84l-4.084-1.31l0.817-6.697l6.534-7.84l-11.761-8.823l0.816-12.252l12.58-8.331l14.702,0.817l2.451,4.577
	l15.192,0.815l11.108-6.209l-5.718-6.207l1.307-11.598l28.751-14.048l22.052,9.966l7.351-6.699l21.725,20.745l16.335-1.632
	l5.717,5.717l15.52,1.634l10.29-14.05l13.07,5.881l7.025,1.309l7.021-6.208l-5.552-4.573l5.39-8.331l15.191,4.9l3.267,6.698
	l6.535,0.492l4.085-2.94l11.108-0.49l1.305,2.939l12.743,0.817l8.656-9.147l17.642,2.124l5.392-2.124l1.631-9.964l-5.389-11.926
	l5.389-4.572h16.827l16.008,18.948l20.582,11.597h6.209l0.815-4.901l7.351-4.573l0.815,26.953l-6.535,0.49v6.698l3.761,4.574
	l-0.656,5.88l2.777,1.145l1.633-4.085l2.449,0.816l1.632,1.633l7.353-1.633l7.35-21.563l0.816-26.954l-9.476-21.563l-11.922-14.538
	l-5.718,0.817v4.575l-13.883-5.39l5.39-11.597l4.572-30.546l18.946-5.718l8.986-5.717h9.801l-2.451,3.268l2.451,4.084l8.657-9.149
	l4.9,0.491l-0.814-5.39l-7.844-1.634l5.393-19.438L509.316,195.635z"/>
<path id="kazakhstan" d="M115.151,384.632l6.699-2.936l7.514-0.33l0.49,11.436h-4.411l-3.267,5.39l4.411,7.187l6.534,3.596
	l0.654,4.244l2.45-0.815l2.124-2.61l3.593,0.815l1.797,3.594h4.575v-4.737l-2.777-8.33l-1.307-6.698l8.168-3.593l11.107,1.797
	l7.024,7.022l15.681-1.471l8.823,12.416l10.291,0.489l2.777-4.737l3.593-0.817l0.492-5.226l5.389-0.328l2.777,3.431l2.777-6.697
	l24.502,3.431l4.083-5.39l-7.022-8.658l9.31-20.256l7.514,0.49l5.228-12.415l-10.292-0.979l-5.881-5.717l-16.335,1.959
	l-21.073-20.254l-7.351,6.534l-22.542-10.291l-27.606,13.558l-0.816,9.637l6.533,7.516l-12.578,7.186l-16.336-0.327l-3.43-5.063
	l-12.743-0.654l-12.088,7.841l-0.327,10.617L115.151,384.632L115.151,384.632z"/>
<path id="turkmenistan" d="M143.083,415.669l-0.98,4.25h-6.86v5.881l7.351,4.737l-2.287,6.535v3.103l2.94,0.49l4.084-5.392
	l8.984-1.957l19.276,7.349l0.327,5.39l10.78,0.98l12.089-12.743l-1.471-4.082l-8.005-1.797L166.77,413.71l-0.979-5.39h-8.494
	l-3.756,7.022h-3.758L143.083,415.669z"/>
<path id="uzbekistan" d="M200.419,434.456l5.064,0.325v-8.655l-4.736-2.778l8.004-10.128h3.267l3.266,3.761l8.495-3.269
	l-11.762-4.082l-0.491-2.451l-2.776,0.653l-2.777,4.736l-11.925-0.324l-8.657-12.416l-15.356,1.472l-7.352-7.188l-10.128-1.797
	l-7.352,2.94l4.248,14.211v4.737h3.104l3.758-7.187l10.127,0.162l1.47,5.554l21.726,14.377l8.331,1.959L200.419,434.456
	L200.419,434.456z"/>
<path id="tajikistan" d="M202.545,422.533l6.697-8.332h2.45l0.817,1.796l-3.103,2.286v1.798l2.123,1.469l9.801,0.654l3.268-1.308
	l1.471,0.328l0.981,3.103l5.88,0.655l2.94,6.205l-0.818,1.799l-1.143,0.164l-1.143-2.287l-2.45-0.164l-4.411,0.654l-0.327,4.084
	l-4.41-0.328l0.164-5.226l-3.267-3.104l-4.902,4.084l0.164,2.613l-4.248,1.469h-2.451l0.165-9.147L202.545,422.533L202.545,422.533z
	"/>
<path id="kirgizstan" d="M213.326,401.949l-0.489,4.084l0.489,2.613l14.21,4.737l-12.413,5.065l-1.471-1.144l-2.777,1.798
	l0.164,0.979l1.472,0.651l8.82,0.164l4.412-1.306l5.717-7.187l7.188,1.306l8.658-11.927l-23.032-3.101l-3.267,7.677l-4.084-4.248
	L213.326,401.949L213.326,401.949z"/>
<path id="mongolia" d="M273.765,354.578L283.239,342l11.434,5.227l7.839,2.123l9.476-8.657l-6.535-4.738l4.25-6.045l12.74,4.41
	l4.411,7.188l8.003,0.164l4.084-3.104l8.497-0.327l1.794,3.104l14.211,0.654l8.985-9.147l12.414,1.308l-0.652,12.414l5.391,1.309
	l6.698-3.104l7.024,3.43l-0.164,1.798l-5.064,0.163l-5.391,11.27l-4.086,0.491l-16.171,21.073l-16.5,7.188l-10.287,0.815
	l-8.495-5.556l-10.944,5.881l-10.78-3.43l-3.104-7.841l-20.419-1.468l-10.455-17.805l-5.063-0.329L273.765,354.578L273.765,354.578z
	"/>
<path id="china_1_" d="M414.245,517.93l-3.918,1.142l-2.777,3.429l2.285,4.577l3.433,0.326l3.919-3.431l0.981-4.574L414.245,517.93
	L414.245,517.93z M268.211,354.416l-5.717,14.212l-7.841-0.492l-8.169,17.969l7.025,8.82l-14.373,19.767l-7.352-1.306l-4.9,6.207
	l1.307,3.756l5.718,0.492l2.94,6.698l5.718,1.304l17.642,22.707v11.599l8.658,5.392l9.475-1.636l11.925,7.025l14.373,4.084
	l7.025-0.818l7.84-0.813l16.335-10.782l5.392,0.815l2.123,4.903l4.574,1.306l6.207,9.147l-4.083,9.149l2.447,6.205l7.025,2.451
	l1.305,7.514l8.168,0.816l1.307-3.759l11.924-6.209l7.352,0.49l8.657,9.478l5.718-2.451l3.759,0.49l1.635,4.575l2.937,0.492
	l4.086-5.72l16.335-6.207l14.702-17.804l4.899-16.991l-0.488-11.108l-6.207-1.306l3.757-4.082l-0.815-6.699l-15.518-15.683v-7.84
	l4.573-5.719l4.574-2.123l0.49-4.576h-11.434l-2.124,6.209l-5.391-1.306l-6.532-7.022l4.082-10.78l5.72-6.212l5.389,0.492
	l-0.817,9.474l2.941,2.451l7.024-7.025l2.448-0.487l-0.818-5.394l6.537-7.84l4.901,0.49l2.939-9.147l3.431-1.797l0.326-5.717
	l-3.267-3.432l-0.327-8.983l6.207-0.491l-0.488-23.031l-4.411,2.614l-1.635,5.88h-7.35l-21.399-12.088l-15.356-18.621l-15.682-0.164
	l-3.921,3.43l5.066,11.599l-1.799,10.942l-6.369,2.614l-3.595-0.328l-0.326,10.782l3.757,0.817l6.533-2.941l8.659,4.085v4.084
	l-6.209,0.489l-4.901,10.782l-4.574,0.49l-16.007,21.072l-16.828,7.514l-11.432,0.816l-7.843-5.388l-11.106,5.879l-11.926-3.759
	l-2.939-7.841l-20.092-1.307l-10.619-17.314h-4.573l-3.594-8.004L268.211,354.416z"/>
<path id="north_korea" d="M444.467,393.945l2.94,1.306l0.979,10.455l6.045,0.327l5.555-6.534l-1.962-1.798l0.164-7.024l5.229-6.207
	l-2.614-4.738l1.636-1.958l0.979-4.901l-2.941-1.306l-2.612,1.306l-3.104,9.636l-5.064-0.489l-5.881,7.022L444.467,393.945
	L444.467,393.945z"/>
<path id="south_korea" d="M460.801,400.316l10.129,8.168l1.635,8.004l-0.328,4.246l-4.901,5.554l-4.249,0.163l-4.9-10.452
	l-1.796-4.904l1.96-1.469l-0.489-2.121l-2.45-1.144L460.801,400.316L460.801,400.316z"/>
<path id="afghanistan" d="M176.244,447.359l2.614,20.422l6.535,1.466l0.653,3.595l-4.573,3.922l8.658,7.022l16.825-6.043
	l1.307-7.187l10.617-6.537l4.083-15.354l2.941-3.267l-3.104-5.392l10.291-6.37l-1.307-1.798l-4.737,0.328l-0.49,4.412h-6.372
	l-0.165-5.882l-2.123-2.448l-3.43,3.103l0.164,2.94l-5.228,1.959l-9.475-0.651l-12.416,13.065L176.244,447.359L176.244,447.359z"/>
<path id="pakistan" d="M190.947,484.604l4.247,6.371l-0.489,3.269l-5.718,2.287l-0.491,5.226h6.535l2.287-1.796h12.25l11.108,9.802
	l1.471-4.74h8.332l0.163-5.879l-8.492-8.168l1.796-4.41l8.658-0.653l11.762-24.34l-6.533-5.065l-2.45-8.492l15.681-1.472
	l-9.312-13.233l-4.901-1.304l-1.959,2.449l-1.471,0.162l-9.311,5.883l3.104,5.063l-3.431,3.595l-4.247,15.682l-10.455,6.697
	l-1.471,7.353L190.947,484.604L190.947,484.604z"/>
<path id="india" d="M269.192,587.844l7.515-3.594l4.409-16.011l-0.164-19.765l25.483-27.442v-6.533l5.227-2.127l-0.163-7.514
	l-5.717-10.943l3.266-5.881l7.024,6.535l9.148,0.489v3.596l-2.777,3.104l0.654,1.633l4.902,0.166l0.979,5.551h1.47l3.593-6.532
	l1.797-17.154l6.046-4.246l0.162-5.881l-2.449-4.737l-3.758-0.164l-15.029,9.963l0.979,6.371h-10.616l-3.758-4.573l-1.96,0.325
	l0.655,6.373l-22.87-1.635l-14.212-6.371l-0.817-7.841l-9.474-5.881l-0.164-12.09l-6.534-7.351l-14.865,1.472l1.634,6.534
	l7.352,5.882l-12.579,25.81l-8.494,0.651l-1.308,3.104l8.332,7.678l-0.491,7.841l-8.495-0.164l-0.979,3.922l7.023-0.325l0.164,3.102
	l-5.063,2.611l3.267,6.047l6.208,2.121l3.757-2.774l1.798-5.065l2.285-0.979l2.613,2.612l-0.817,6.533l-1.796,3.104l0.491,5.229
	L269.192,587.844L269.192,587.844z"/>
<path id="nepal" d="M269.519,472.844l0.816,7.024l13.232,6.045l21.234,1.631l-0.815-5.063l-14.212-3.92l-11.925-7.188
	L269.519,472.844z"/>
<path id="bhutan" d="M309.05,481.829l2.449,3.429h8.493l-0.816-4.736L309.05,481.829L309.05,481.829z"/>
<path id="bangladesh" d="M309.378,489.997l-2.125,3.92l5.554,10.617l0.164,8.168l0.979,2.287l6.536,0.163l3.755-3.596l2.614,1.635
	l0.489,5.064l2.123-1.306l0.164-6.373l-1.795-0.164l-1.144-5.39l-4.575-0.163l-1.143-3.103l2.776-3.759v-1.797h-8.005
	L309.378,489.997z"/>
<path id="burma" d="M364.589,572.487l-4.574-7.187l3.27-4.576l-3.105-5.717l-2.94-0.49l-0.49-9.637l-4.41-8.494l-1.308,1.959
	l-2.941,4.903l-3.593,0.488l-1.797-2.449l-0.979-6.532l-2.778-5.229l-11.105-10.617l2.775-1.799l0.491-7.677l4.083-6.86
	l1.798-16.988l5.878-4.084l0.165-6.207l3.595,1.14l5.555,8.008l-4.085,8.82l2.778,7.024l6.858,2.776l1.308,7.513l9.312,1.47
	l-2.614,4.409l-11.762,4.576l-1.305,7.515l8.655,11.106l0.328,5.883l-1.958,1.959l0.162,1.799l6.371,9.472l0.163,9.802
	L364.589,572.487L364.589,572.487z"/>
<path id="thailand" d="M365.569,518.419l5.227,6.861v8.328l1.798,0.979l8.492-4.084l1.635,0.491l10.127,11.597l-0.327,8.004
	l-3.267-0.491l-2.939-1.794l-2.123,0.162l-3.759,6.373l0.815,3.429l3.105,1.633l-0.164,3.921l-2.122,1.143l-7.515-5.228v-4.573
	l-3.104-0.164l-1.306,1.959l-0.653,20.582l4.9,8.822l8.656,8.332l-0.325,2.446l-4.576-0.162l-4.245-6.207h-4.411l-5.556-4.411
	l-1.631-4.576l2.446-3.92l0.817-3.429l2.612-4.577l-0.164-10.453l-6.371-9.147l-0.327-1.142l2.123-2.125l-0.489-7.187l-8.33-10.619
	l0.979-6.207L365.569,518.419L365.569,518.419z"/>
<path id="cambodia" d="M382.721,565.791l6.698,7.187l12.415-9.148l1.144-14.538l-6.373,4.411l-3.268-1.797l-4.573-0.653
	l-2.447-1.798h-1.307l-3.269,5.392l0.491,2.449l3.428,1.797l-0.49,5.065L382.721,565.791L382.721,565.791z"/>
<path id="laos" d="M374.553,506.003l-3.92,1.962l-3.269,9.639l5.555,7.022l-0.98,7.677l0.98,0.328l9.148-4.412l12.252,13.724
	l-0.326,8.655l2.609,1.472l6.537-5.394l-0.49-4.246l-18.948-17.967l0.165-2.775l2.448-1.635l-1.633-4.578l-7.842-1.302
	L374.553,506.003L374.553,506.003z"/>
<path id="vietnam" d="M390.235,573.795l1.959,3.103l0.327,3.43l5.063,0.492l6.209-8.33l5.881-1.635l3.104-8.492l-1.47-13.558
	l-6.045-8.33l-6.371-5.065l-8.166-13.886l5.715-9.639l-8.329-9.474l-6.699-0.326l-6.044,3.267l1.796,7.677l8.004,1.469l2.124,5.882
	l-2.776,1.797l0.164,1.467l18.784,18.298l0.815,5.389l-1.142,16.99L390.235,573.795L390.235,573.795z"/>
<path id="georgia" d="M80.522,410.115l5.39,7.026l6.698,3.104h4.083l7.024-1.961l1.796-2.778l-20.909-7.84L80.522,410.115z"/>
<path id="armenia" d="M103.717,419.429l7.839,10.289l-2.287,2.613l-5.555-0.979l-6.862-6.207l0.328-4.084L103.717,419.429z"/>
<path id="azerbaijan" d="M106.493,415.833l-1.633,2.776l7.676,10.127l2.614-0.813l4.412,4.572l1.959-8.168l4.737,0.817l-0.164-2.285
	l-7.84-6.862l-1.47,4.086L106.493,415.833z"/>
<path id="iran" d="M103.717,432.495l-1.96,2.125l0.164,3.266l2.45,3.433l8.822,9.638l-1.307,3.92h-1.471l-0.817,3.918l4.901,6.373
	l4.574,0.326l9.148,12.741l5.228,0.328l4.083,2.94l0.164,5.718l15.846,9.312h5.88l3.592-3.104l4.575-0.162l2.613,6.207l17.152,2.45
	l0.491-6.374l5.717-2.121l0.328-2.287l-4.573-6.207l-10.13-8.17l5.227-4.738l-0.326-2.123l-6.697-0.979l-2.777-22.381l-0.327-5.062
	l-17.969-6.862l-8.003,1.799l-4.411,5.552l-3.922-0.328l-1.143,0.981l-8.82-0.655l-11.107-8.167l-4.084-4.573l-1.96,0.489
	l-3.431,3.919L103.717,432.495z"/>
<path id="yemen" d="M107.475,548.963l2.285,7.026v6.858l5.717,5.065l39.857-16.172l0.327-4.412l-6.371-11.433l-16.007,5.064
	l-9.147,8.983l-10.617-6.369L107.475,548.963z"/>
<path id="oman" d="M150.599,535.243l12.088-7.022l2.124-10.291l-2.614-1.472l1.143-10.942l2.287-1.308l2.451,3.922l14.702,7.677
	v4.248l-17.806,26.137l-8.167,0.328L150.599,535.243L150.599,535.243z"/>
<path id="emirates" d="M143.41,509.271l1.471,5.718l16.173,1.469l1.143-11.598l3.103-1.632l0.818-4.248l-5.064,1.47l-5.717,8.492
	L143.41,509.271z"/>
<path id="qatar" d="M141.125,499.635l-0.818,6.532l2.45,1.961l2.286-0.163l0.817-8.167l-1.959-1.471L141.125,499.635
	L141.125,499.635z"/>
<path id="kuwait" d="M125.931,480.357l-3.757-1.959l-2.613,2.613l0.327,5.065l5.88,2.285L125.931,480.357L125.931,480.357z"/>
<path id="saudi_x5F_arabia" d="M127.075,490.161l11.435,16.006l3.757,2.94l1.633,7.188l17.642,1.471l1.959,0.978l-1.959,8.82
	l-11.598,6.86l-16.989,5.067l-8.986,8.819l-10.779-6.207l-6.534,5.716l-8.985-14.865l-6.209-2.776l-2.288-3.431v-7.514
	l-22.542-27.277l-0.816-4.901h6.535l7.84-6.861l0.327-3.43l-2.286-2.287l4.573-3.756l9.638,0.651l16.335,13.722l9.637-0.49
	l0.655,2.449L127.075,490.161L127.075,490.161z"/>
<path id="syria" d="M66.146,450.79l-0.491,4.086l4.573,1.961l-0.164,11.433l4.574-0.162l4.573-3.431l1.796-0.327l10.456-8.33
	l2.123-12.09l-20.909,2.125l-2.122,4.901L66.146,450.79z"/>
<path id="iraq" d="M94.895,444.093l-2.614,12.58l-10.617,8.82l0.655,4.084l10.291,0.655l16.335,13.392l9.148-0.324l0.326-3.104
	l3.431-3.592l4.737,2.612l0.653-0.653l-9.146-12.088l-4.249-0.328l-5.717-7.351l1.144-5.392l1.797-0.163l0.653-2.447l-7.839-8.168
	L94.895,444.093L94.895,444.093z"/>
<path id="jordan" d="M69.739,469.902l-4.083,14.048l-0.164,2.127h6.371l7.025-6.209l0.164-2.287l-2.94-2.938l5.227-4.25l-0.817-3.92
	l-1.471,0.325l-4.249,3.104H69.739V469.9l0,0V469.902z"/>
<path id="lebanon" d="M65.329,456.182l0.164,3.104l-1.307,4.899l4.573,0.328l0.326-6.861L65.329,456.182z"/>
<path id="israel" d="M63.859,465.493l-2.614,8.168l3.268,9.799l3.756-14.375v-3.104L63.859,465.493z"/>
<path id="cyprus" d="M60.428,451.936l1.96,1.469l-6.208,5.882l-2.938-0.162l-2.124-1.472l0.327-2.94l4.574-0.326L60.428,451.936z"/>
<path id="malaysia_1_" d="M369.979,591.764l3.267,7.353l0.814,9.636l4.412,6.86l10.618,6.371l4.083,0.326l-0.814-6.697l-3.432-8.494
	l-5.063-10.78l-0.491,1.961l-6.208-0.328l-4.41-6.369L369.979,591.764L369.979,591.764z M420.77,619.798l4.821,5.629l18.646-6.431
	l3.697-14.144l8.359-0.643l7.552-5.465l-9.805-7.235l-2.247-4.019l-4.822,9.003l1.767,5.145l-2.893,4.34l-5.626-1.446l-13.5,9.965
	l0.32,5.785L420.77,619.798L420.77,619.798z"/>
</svg>
