<svg xmlns="http://www.w3.org/2000/svg" viewBox="0 0 169.9 186.7"><defs><style>.cls-1{fill:#9e8363;}</style></defs><title>資產 2</title><g id="圖層_2" data-name="圖層 2"><g id="svg2"><path id="estonia" class="cls-1" d="M118.3,97.1l-5.6-.2-3.5,2.2v1.6l2.3,2.2,7.2,1.2-.4-7Z"/><path id="iceland" class="cls-1" d="M6.9,70.7l-2-1.1L2.3,71.3,0,73.4l.1,1.2L3,75l-.2,2.1-1,1.1.3.7,2.9.2v3.4l4.2.7,2.5,1.4,2.8.1,4.8-2.4L23,77.4l.1-3.3-2.3-1.9-1.9-1.6-.9.6-1.3,1.7-1.5-.2-1.5-1.6-1.9.2L9,73.6,7.3,75.4l-.9-.8-.1-2,.9-.6-.3-1.3Z"/><path id="spitsbergen" class="cls-1" d="M88.8,7.4,87.2,5.7,83.5,7.5H76.8l-1.1,3.9,3.8,3.3,1.6-.2,2.4-4,2,1.4-1.4,2.8-.7,4.2L85,21.5l3.5-5.9L93.1,10,91.3,8.5,88.8,7.4Z"/><path id="nordaustlandet" class="cls-1" d="M90.8.2l-3,2.7,1.8,2.7h3.2l1.3,1.8,3.9,2,4.5-2.6,3.1-2.6-1.1-2.1L101.4.3l-2.2,2L97.7.4,96.5.5,95,3.8,92.8,1.5,92.6,0,90.8.2Z"/><path id="edgeoya" class="cls-1" d="M97.5,12.5l-2.4,2.1-2,1.5.9,1.7,1.9.6L99,17l1.4-1.8-1.3-2.1-1.6-.6Z"/><path id="turkey" class="cls-1" d="M159.2,162.6,157,165l-8.2-.2-4.9-2.9-4.8-.1-5.5,3.9-5.2.2-.5,2.9H122l-2.3,2.1v1.2l1.4,1.2v1.3l-.6,1.5.6,1.3,1.9-.9,1.9,2-.5,1.4-.7.9,1,1.2,5.2,1.1,3.6-1.5v-2.2l1.8.4,4.2,2.5,4.6-.7,2-1.9,1.3.5v2.1h1.8l1.5-2.9,13.4-1.4,5.8-.7-1.5-2v-2.7l1.2-1.4-4.3-3.4.2-2.9h-2.3l-4-2.3Z"/><path id="norway" class="cls-1" d="M116,55.5l2-1.5-.2-1.7-1.3-.7.2-2h1.1V48.5L113,47.2l-7.1.7-.7,3.1-1.6-.5-1.1-1.8-3.5.2-.5,3.5-1.6.7L96,51.3l-7.3,5.9,1.5,1.7-2.8,1.3L81.2,72.6,79,74.1l.2,1.1,2.2,1.1-.5,2.4-3.7-.2-1.1-1.3L73.7,80l-1.5,1.1-.4,2.6-1.3.7-3.3.7-1.6,5.2,1.1,8.5,1.3,3.9,1.5,1.5,3.3-.2,4.8-4.6,1.8-3.1.5,4.6L83,95.4l.2-15.5,2.5-1.6.8-8.6,7.7-11.1,3.7-1.3,1.6-2,5.5,1.3,2.8,1.7.9-4.6,4.6-2.8,2.7,4.6Z"/><path id="britain" class="cls-1" d="M46.6,102.5l-1.8,2.8.7,1.1h4.2v1.9l-1.1,1.5.7,3.9,2.4,4.6,1.8,4.3,2.9,1.1,1.3,2.2-.2,2L55.7,129l-.2.9,1.3.7-1.1,1.5-2.6,1.1-5-.6-7.7,3.5-2.6-1.3,7.3-4.3-.9-.6-3.9-.4,2.4-3.5.4-3,3.1-.4-.5-5.7-3.7-.2-1.1-1.3.2-4.3-2.2.2,2.2-7.4,4-3,1.5,1.6Z"/><path id="ulster" class="cls-1" d="M38.9,114.9l-3.3.4-.2,3,2.2,1.5,2.4-.6.9-1.7-2-2.6Z"/><path id="ireland" class="cls-1" d="M40,119.9l-.9,6-8.1,3H28.5l-1.8-1.3v-1.1l4-2.6-1.1-2.2.2-3.1,3.5.2,1.6-3.8-.2,3.3,2.7,2.1,2.6-.5Z"/><path id="sweden" class="cls-1" d="M98.2,58l2,1.8h3.7l2,3.9.5,6.7-5,3.5v3.5l-3.5,4.8-2,.2L93.1,87l.2,4.4,4.8,3.5-.4,2-1.8,2.8-2.8,2.4.2,7.9-4.2,1.5-1.5,3.1h-2l-1.1-5.5-4.6-7,3.8-6.3L84,80.2l2.6-1.4.6-8.9,7.4-10.6L98.2,58Z"/><path id="finland" class="cls-1" d="M107.3,70.3l2.1.9,1.3,2.4-1.3,1.7-6.4,7L101.9,86l1.5,5.4,5,3.7L115,92l5.3-.7,5-7.9-3.7-8.7-3.5-8.3.5-5.4-2.2-.4-.6-3.9-3-4.8-3.3,2.3-1.3,5.3-3.5-2.1-4.8-1.2-1.1,1.3,1.9,1.7,3.4-.1,2.7,4.4.5,6.8Z"/><path id="path302" class="cls-1" d="M118.6,104.8l-6.9-1.1.1,3.8,6.3,3.9,2.6-.8-.2-2.9-1.9-2.9Z"/><path id="hiumaa" class="cls-1" d="M107.3,101l-1.5-.1-.9.9.6,1,1.5.1.8-1.2-.5-.7Z"/><path id="saaremaa" class="cls-1" d="M107.1,105.1l-1.5-.1-2.7,3.2v1.5l.9.4,1.8.1,2.9-2.4.4-.8-1.8-1.9Z"/><path id="lithuania" class="cls-1" d="M111.3,108.1l-2.1-.1-3,2.8h-2.5l.1,3.5-1.5,2.8,5.4.1,1.5-.2,1.5,1.9,3.6-.1,3.4-4.3-.2-2.6-6.2-3.8Z"/><path id="belarus" class="cls-1" d="M111.2,119.7l1.5,2.5-.6,2,.1,1.6.5,1.9,3.1-1.8,3.8.1,2.7,1.1h6.8l2-4.8,1.2-1.8v-1.2l-4.3-6.1-3.8-1.5-3.1-.4-2.7.9.1,2.7-3.8,4.7-3.5.1Z"/><path id="poland" class="cls-1" d="M112,128.2l.9,1.6.2,1.7-.7,1.6-1.6,3.1-1.4.6-1.8-.8-1,.1-2.5,1-2.9-.9-4.7-3.3-4.6-2.5L90,127.6l-.4-6.6,3.6-3.1,4.7-1.6,1.8-.2-.7,1.4.5.6,7.9.1,1.7-.1,2.8,4.3-.7,1.8.3,2.1.5,1.9Z"/><path id="spain" class="cls-1" d="M48.9,158.4H36.2l-2.6-1.2-1.2.1-1.5,3.1.5,3.2,4.9.4.6,2.1L34.8,178l.1,2.1,3.5,1.9,4,.3,8-2,3.9-4.9.1-5,6.9-6.2.4-2.8-6.3-.1-6.5-2.9Z"/><path id="portugal" class="cls-1" d="M31.4,164.6l-.6,8.6L29,174.8l.2,1,1.2,2.1-.8,2.5,1.3.4,3.1-.4-.2-2.5,2-11.6-.4-1.6-4-.1Z"/><path id="majorca" class="cls-1" d="M61.6,170.6l-1.6.5.4,1.4h2.3l1-1.1-2.1-.8Z"/><path id="sardinia" class="cls-1" d="M78.1,166.8l-2.6,1.3.4,5.2,2.1.4,1.6-1.5v-4.9l-1.5-.5Z"/><path id="corsica" class="cls-1" d="M78.3,160.4l-2,2-.2,1.8,1.6,1,.6-.1.4-2.6-.4-2.1Z"/><path id="france" class="cls-1" d="M60.9,132.1l-2.2.5-4.4,4.8-1.3.1-1.8-1.3-1.1.3-.9,2.8-6.5.2.2,1.4,4.4,2.9,5.1,4.1-.1,4.9-2.7,4.8,5.9,2.9,6,.2,1.9-2.1,3.8.1,1.1,1,3.8-.3,2-2.5L71.6,154l-.2-1.9.5-2.1-1.2-1.8-2.1.6-.3-1.6L73,142v-3.1l-3.1-1.8-1.6-.3-7.4-4.7Z"/><path id="netherlands" class="cls-1" d="M70.6,121.7l-4.5,2.2,1,.9.1,2.2-1-.2-1.1-1.6-2.5,4,3.9.8,1.5,1.5h.8l.5-3.5,2.5-1-1.2-5.3Z"/><path id="belgium" class="cls-1" d="M62.1,129.9l-.6,1.6,6.9,4.5,2,.5.1-2.1-1.7-1.9H67.7l-1.5-1.6-4.1-1Z"/><path id="germany" class="cls-1" d="M71.6,121.3l3.6-.6v-2.5l3-.5,1.6,1.6,1.7.2,2.7-1.2,2.4.7,2.1,1.8.3,6.9,2.1,2.8-2.8.4-4.6,2.9.4,1,4.1,3.9-.3,1.9L84,142.5l-3.6.1-.9,1.8H77.7l-.9-1.9-3.2-.8-.1-3.2-2.7-1.8.3-2.3-1.8-2.5.5-3.3,2.5-1.2-.7-6.1Z"/><path id="denmark" class="cls-1" d="M77.3,104.9l-4.1,4.6-.1,3,1.9,4.9,3-.6-.4-4,2-2.3v-1.8L78.2,105l-.9-.1Z"/><path id="sjælland" class="cls-1" d="M81.9,113H81l-1.2,1.1.1,1.8,2.9.1.1-2-1-1Z"/><path id="gotland" class="cls-1" d="M99,103.6l-2.1,1.7,1.1,2.4,1.9-1.8-.9-2.3Z"/><path id="switzerland" class="cls-1" d="M73.4,142.8,69,147.4l.1.5,1.8-.6,1.6,2.2,2.7-1,1.9,1.5.8-.4,2.3-3.6-.6-.6-2.3-.1L76.2,143l-2.8-.2Z"/><path id="czech" class="cls-1" d="M88.9,138.3h4.5l2.4,1.7,4.4-3.6-4.3-3-4.2-2-2.9.5-3.9,2.5,4,3.9Z"/><path id="slovakia" class="cls-1" d="M96.3,140.5l.7.6.1,1,7.6-.2,5.6-2.4-.1-2.5-1.1.5-1.5-.8h-1l-2.5,1-3.4-.8-4.4,3.6Z"/><path id="austria" class="cls-1" d="M81.1,143.5l-.6,1.4.6,1,2.3-.5h2l2.1,1.8,4.6-.8,3.4-2,.9-1.4-.1-1.7-3-2.3h-4l-.3,2.3-4.5,2.1-3.4.1Z"/><path id="hungary" class="cls-1" d="M97.2,143,96,144.8l.1,2.8,1.9.9,5.7.2,7.9-6.7v-1.5l-.9-.4-5.7,2.6-7.8.3Z"/><path id="slovenia" class="cls-1" d="M95.3,145.4l-2.5,1.5-4.7,1,1,2.7h3.3l3.1-2.6-.2-2.6Z"/><path id="croatia" class="cls-1" d="M96.1,148.6l-3.5,2.9H89l-.4,2.5,1.6.4.8-1.2,1.3,1.1,1,3.6,7.1,3.3.7-.8L93.9,153l.7-1.4,6.8-.3.7-2.2-4.4.1-1.6-.6Z"/><path id="bosnia" class="cls-1" d="M95.3,152.3l-.4.6,6.7,6.9,2.5-3.6-.1-1.4-2.1-2.6-6.6.1Z"/><path id="italy" class="cls-1" d="M72.8,150.4l-.6,1.6.2,1.7,2.4,2.8,3.8-.1,8.3,9.6,5.2,1.5,3.1,2.9.7,6.6,1.6-1,1.4-3.6-.4-2.6,2.4-.2.4-1.5-6.9-3.3-6.5-6.4-2.6-3.8-.6-3.6,3.3-.8-.9-2.4-2-1.7-1.8-.1-2.4.7-2.3,3.2-1.4.9-2.1-1.3-2.3.9Z"/><path id="sicily" class="cls-1" d="M92.9,176.4l-1.5-.8-5,.8.2,1.3,4.5,2.2.7.7,1.2.2-.1-4.4Z"/><path id="malta" class="cls-1" d="M93.1,183.9l-1.7.3.1,1.9,1.5.5.7-.6-.6-2.1Z"/><path id="ukraine" class="cls-1" d="M116.1,126.5l-2.9,1.6.7,3.1-2.7,5.6v2.5l1.3.8,8.1.4,2.3-1.9,2.4.8,3.5,4.6-2.5,4.6,3,.9,4-4.6,2.3.4,2.1,1.5-1.8,2.4,2.5,3.9h2.7l1.4-2.6,2.8-.6.1-2.1-5.2-.8.2-2.3h5.1l5.5-4.4,2.4-2.1.4-6.7-10.8-1-4.4-6.3-3.1-1.1-3.7.2-1.7,4.1-7.6.1-2.5-1.1-3.9.1Z"/><path id="moldova" class="cls-1" d="M121.3,141.1l3.1,4.8-.3,2.7,1.1.1,2.6-4.4-3.2-3.9-1.8-.7-1.5,1.4Z"/><path id="romania" class="cls-1" d="M112.7,141l-.3,1.5-5.8,4.8,4.8,7.1,3.1,2.2h5.6l1.8-1.5,2.5-.3,1.8,1.1,3.3-3.7-.6-1.9-3.3-.9-2.3-.1.1-3.2-3-4.7-7.7-.4Z"/><path id="montenegro" class="cls-1" d="M105.4,160.6v-.9l-1.3-1.9-2.1,3,.4,1.3,1.7.3Z"/><path id="serbia" class="cls-1" d="M106.1,147.9l-2.1,1.5h-1l-.7,2.1,2.4,2.8.2,2.2-.3.5,1.6,2.3.1,1.2,1.2,1.1,3.8-1.2-.3-5.5Z"/><path id="bulgaria" class="cls-1" d="M111.9,155.8l.2,5,1.7,3.5,6.3.1,2.8-2,2.8-1.1-.7-3.2.6-1.7-1.4-.7-2,.2-1.5,1.5-6.4.1-2.4-1.7Z"/><path id="albania" class="cls-1" d="M104.5,163.2v4.6l1.3,2.5,1-.1,1.6-3-1-1.3-.4-3.3-1.3-1.2-1.2,1.8Z"/><path id="macedonia" class="cls-1" d="M111.4,161.4l-3.4,1.1.2,2.9.8,1,4-1.9-1.6-3.1Z"/><path id="greece" class="cls-1" d="M107.2,171l-.1,1.3,4.6,2.3,2.2.9-1.2,1.2-2.6.3-.4,1.2.9,2,2.9,1.5,1.3.1.2-3.4,1.9-2.3-5.2-6.1.7-2.1,1.2-.1,1.8,1.5,1.2-.6.4-2.1,5.4.1.2-3.2-2.3,1.6-6.6-.2-4.3,2.2-2.2,3.9Z"/><path id="thrace" class="cls-1" d="M123.5,163.1l-.2,3.6,3.1-.9,1.4-.9-.4-1.5-1.5-1.2-2.4.9Z"/><path id="crete" class="cls-1" d="M117.3,184l1.6.1.7,1H122l1.6-.6.5.6-1,1.4-4.6.2-.8-1.1-.9-.5.5-1.1Z"/></g></g></svg>